<svg width="384" height="119" viewBox="0 0 384 119" fill="none" xmlns="http://www.w3.org/2000/svg">
<path d="M2.65989 118.758C4.05165 118.758 5.17989 117.658 5.17989 116.303C5.17989 114.947 4.05165 113.848 2.65989 113.848C1.26813 113.848 0.139893 114.947 0.139893 116.303C0.139893 117.658 1.26813 118.758 2.65989 118.758Z" fill="#D9CAB8"/>
<path d="M2.65989 90.525C4.05165 90.525 5.17989 89.4258 5.17989 88.07C5.17989 86.7141 4.05165 85.615 2.65989 85.615C1.26813 85.615 0.139893 86.7141 0.139893 88.07C0.139893 89.4258 1.26813 90.525 2.65989 90.525Z" fill="#D9CAB8"/>
<path d="M2.65989 62.2924C4.05165 62.2924 5.17989 61.1933 5.17989 59.8374C5.17989 58.4816 4.05165 57.3824 2.65989 57.3824C1.26813 57.3824 0.139893 58.4816 0.139893 59.8374C0.139893 61.1933 1.26813 62.2924 2.65989 62.2924Z" fill="#D9CAB8"/>
<path d="M2.65989 34.06C4.05165 34.06 5.17989 32.9609 5.17989 31.605C5.17989 30.2492 4.05165 29.15 2.65989 29.15C1.26813 29.15 0.139893 30.2492 0.139893 31.605C0.139893 32.9609 1.26813 34.06 2.65989 34.06Z" fill="#D9CAB8"/>
<path d="M2.65989 5.82748C4.05165 5.82748 5.17989 4.72834 5.17989 3.37248C5.17989 2.01662 4.05165 0.91748 2.65989 0.91748C1.26813 0.91748 0.139893 2.01662 0.139893 3.37248C0.139893 4.72834 1.26813 5.82748 2.65989 5.82748Z" fill="#D9CAB8"/>
<path d="M34.1599 118.758C35.5517 118.758 36.6799 117.658 36.6799 116.303C36.6799 114.947 35.5517 113.848 34.1599 113.848C32.7681 113.848 31.6399 114.947 31.6399 116.303C31.6399 117.658 32.7681 118.758 34.1599 118.758Z" fill="#D9CAB8"/>
<path d="M34.1599 90.525C35.5517 90.525 36.6799 89.4258 36.6799 88.07C36.6799 86.7141 35.5517 85.615 34.1599 85.615C32.7681 85.615 31.6399 86.7141 31.6399 88.07C31.6399 89.4258 32.7681 90.525 34.1599 90.525Z" fill="#D9CAB8"/>
<path d="M34.1599 62.2924C35.5517 62.2924 36.6799 61.1933 36.6799 59.8374C36.6799 58.4816 35.5517 57.3824 34.1599 57.3824C32.7681 57.3824 31.6399 58.4816 31.6399 59.8374C31.6399 61.1933 32.7681 62.2924 34.1599 62.2924Z" fill="#D9CAB8"/>
<path d="M34.1599 34.06C35.5517 34.06 36.6799 32.9609 36.6799 31.605C36.6799 30.2492 35.5517 29.15 34.1599 29.15C32.7681 29.15 31.6399 30.2492 31.6399 31.605C31.6399 32.9609 32.7681 34.06 34.1599 34.06Z" fill="#D9CAB8"/>
<path d="M34.1599 5.82748C35.5517 5.82748 36.6799 4.72834 36.6799 3.37248C36.6799 2.01662 35.5517 0.91748 34.1599 0.91748C32.7681 0.91748 31.6399 2.01662 31.6399 3.37248C31.6399 4.72834 32.7681 5.82748 34.1599 5.82748Z" fill="#D9CAB8"/>
<path d="M65.6599 118.758C67.0517 118.758 68.1799 117.658 68.1799 116.303C68.1799 114.947 67.0517 113.848 65.6599 113.848C64.2681 113.848 63.1399 114.947 63.1399 116.303C63.1399 117.658 64.2681 118.758 65.6599 118.758Z" fill="#D9CAB8"/>
<path d="M65.6599 90.525C67.0517 90.525 68.1799 89.4258 68.1799 88.07C68.1799 86.7141 67.0517 85.615 65.6599 85.615C64.2681 85.615 63.1399 86.7141 63.1399 88.07C63.1399 89.4258 64.2681 90.525 65.6599 90.525Z" fill="#D9CAB8"/>
<path d="M65.6599 62.2924C67.0517 62.2924 68.1799 61.1933 68.1799 59.8374C68.1799 58.4816 67.0517 57.3824 65.6599 57.3824C64.2681 57.3824 63.1399 58.4816 63.1399 59.8374C63.1399 61.1933 64.2681 62.2924 65.6599 62.2924Z" fill="#D9CAB8"/>
<path d="M65.6599 34.06C67.0517 34.06 68.1799 32.9609 68.1799 31.605C68.1799 30.2492 67.0517 29.15 65.6599 29.15C64.2681 29.15 63.1399 30.2492 63.1399 31.605C63.1399 32.9609 64.2681 34.06 65.6599 34.06Z" fill="#D9CAB8"/>
<path d="M65.6599 5.82748C67.0517 5.82748 68.1799 4.72834 68.1799 3.37248C68.1799 2.01662 67.0517 0.91748 65.6599 0.91748C64.2681 0.91748 63.1399 2.01662 63.1399 3.37248C63.1399 4.72834 64.2681 5.82748 65.6599 5.82748Z" fill="#D9CAB8"/>
<path d="M97.1599 118.758C98.5517 118.758 99.6799 117.658 99.6799 116.303C99.6799 114.947 98.5517 113.848 97.1599 113.848C95.7681 113.848 94.6399 114.947 94.6399 116.303C94.6399 117.658 95.7681 118.758 97.1599 118.758Z" fill="#D9CAB8"/>
<path d="M97.1599 90.525C98.5517 90.525 99.6799 89.4258 99.6799 88.07C99.6799 86.7141 98.5517 85.615 97.1599 85.615C95.7681 85.615 94.6399 86.7141 94.6399 88.07C94.6399 89.4258 95.7681 90.525 97.1599 90.525Z" fill="#D9CAB8"/>
<path d="M97.1599 62.2924C98.5517 62.2924 99.6799 61.1933 99.6799 59.8374C99.6799 58.4816 98.5517 57.3824 97.1599 57.3824C95.7681 57.3824 94.6399 58.4816 94.6399 59.8374C94.6399 61.1933 95.7681 62.2924 97.1599 62.2924Z" fill="#D9CAB8"/>
<path d="M97.1599 34.06C98.5517 34.06 99.6799 32.9609 99.6799 31.605C99.6799 30.2492 98.5517 29.15 97.1599 29.15C95.7681 29.15 94.6399 30.2492 94.6399 31.605C94.6399 32.9609 95.7681 34.06 97.1599 34.06Z" fill="#D9CAB8"/>
<path d="M97.1599 5.82748C98.5517 5.82748 99.6799 4.72834 99.6799 3.37248C99.6799 2.01662 98.5517 0.91748 97.1599 0.91748C95.7681 0.91748 94.6399 2.01662 94.6399 3.37248C94.6399 4.72834 95.7681 5.82748 97.1599 5.82748Z" fill="#D9CAB8"/>
<path d="M128.66 118.758C130.052 118.758 131.18 117.658 131.18 116.303C131.18 114.947 130.052 113.848 128.66 113.848C127.268 113.848 126.14 114.947 126.14 116.303C126.14 117.658 127.268 118.758 128.66 118.758Z" fill="#D9CAB8"/>
<path d="M128.66 90.525C130.052 90.525 131.18 89.4258 131.18 88.07C131.18 86.7141 130.052 85.615 128.66 85.615C127.268 85.615 126.14 86.7141 126.14 88.07C126.14 89.4258 127.268 90.525 128.66 90.525Z" fill="#D9CAB8"/>
<path d="M128.66 62.2924C130.052 62.2924 131.18 61.1933 131.18 59.8374C131.18 58.4816 130.052 57.3824 128.66 57.3824C127.268 57.3824 126.14 58.4816 126.14 59.8374C126.14 61.1933 127.268 62.2924 128.66 62.2924Z" fill="#D9CAB8"/>
<path d="M128.66 34.06C130.052 34.06 131.18 32.9609 131.18 31.605C131.18 30.2492 130.052 29.15 128.66 29.15C127.268 29.15 126.14 30.2492 126.14 31.605C126.14 32.9609 127.268 34.06 128.66 34.06Z" fill="#D9CAB8"/>
<path d="M128.66 5.82748C130.052 5.82748 131.18 4.72834 131.18 3.37248C131.18 2.01662 130.052 0.91748 128.66 0.91748C127.268 0.91748 126.14 2.01662 126.14 3.37248C126.14 4.72834 127.268 5.82748 128.66 5.82748Z" fill="#D9CAB8"/>
<path d="M160.16 118.758C161.552 118.758 162.68 117.658 162.68 116.303C162.68 114.947 161.552 113.848 160.16 113.848C158.768 113.848 157.64 114.947 157.64 116.303C157.64 117.658 158.768 118.758 160.16 118.758Z" fill="#D9CAB8"/>
<path d="M160.16 90.525C161.552 90.525 162.68 89.4258 162.68 88.07C162.68 86.7141 161.552 85.615 160.16 85.615C158.768 85.615 157.64 86.7141 157.64 88.07C157.64 89.4258 158.768 90.525 160.16 90.525Z" fill="#D9CAB8"/>
<path d="M160.16 62.2924C161.552 62.2924 162.68 61.1933 162.68 59.8374C162.68 58.4816 161.552 57.3824 160.16 57.3824C158.768 57.3824 157.64 58.4816 157.64 59.8374C157.64 61.1933 158.768 62.2924 160.16 62.2924Z" fill="#D9CAB8"/>
<path d="M160.16 34.06C161.552 34.06 162.68 32.9609 162.68 31.605C162.68 30.2492 161.552 29.15 160.16 29.15C158.768 29.15 157.64 30.2492 157.64 31.605C157.64 32.9609 158.768 34.06 160.16 34.06Z" fill="#D9CAB8"/>
<path d="M160.16 5.82748C161.552 5.82748 162.68 4.72834 162.68 3.37248C162.68 2.01662 161.552 0.91748 160.16 0.91748C158.768 0.91748 157.64 2.01662 157.64 3.37248C157.64 4.72834 158.768 5.82748 160.16 5.82748Z" fill="#D9CAB8"/>
<path d="M191.66 118.758C193.052 118.758 194.18 117.658 194.18 116.303C194.18 114.947 193.052 113.848 191.66 113.848C190.268 113.848 189.14 114.947 189.14 116.303C189.14 117.658 190.268 118.758 191.66 118.758Z" fill="#D9CAB8"/>
<path d="M191.66 90.525C193.052 90.525 194.18 89.4258 194.18 88.07C194.18 86.7141 193.052 85.615 191.66 85.615C190.268 85.615 189.14 86.7141 189.14 88.07C189.14 89.4258 190.268 90.525 191.66 90.525Z" fill="#D9CAB8"/>
<path d="M191.66 62.2924C193.052 62.2924 194.18 61.1933 194.18 59.8374C194.18 58.4816 193.052 57.3824 191.66 57.3824C190.268 57.3824 189.14 58.4816 189.14 59.8374C189.14 61.1933 190.268 62.2924 191.66 62.2924Z" fill="#D9CAB8"/>
<path d="M191.66 34.06C193.052 34.06 194.18 32.9609 194.18 31.605C194.18 30.2492 193.052 29.15 191.66 29.15C190.268 29.15 189.14 30.2492 189.14 31.605C189.14 32.9609 190.268 34.06 191.66 34.06Z" fill="#D9CAB8"/>
<path d="M191.66 5.82748C193.052 5.82748 194.18 4.72834 194.18 3.37248C194.18 2.01662 193.052 0.91748 191.66 0.91748C190.268 0.91748 189.14 2.01662 189.14 3.37248C189.14 4.72834 190.268 5.82748 191.66 5.82748Z" fill="#D9CAB8"/>
<path d="M223.16 118.758C224.552 118.758 225.68 117.658 225.68 116.303C225.68 114.947 224.552 113.848 223.16 113.848C221.768 113.848 220.64 114.947 220.64 116.303C220.64 117.658 221.768 118.758 223.16 118.758Z" fill="#D9CAB8"/>
<path d="M223.16 90.525C224.552 90.525 225.68 89.4258 225.68 88.07C225.68 86.7141 224.552 85.615 223.16 85.615C221.768 85.615 220.64 86.7141 220.64 88.07C220.64 89.4258 221.768 90.525 223.16 90.525Z" fill="#D9CAB8"/>
<path d="M223.16 62.2924C224.552 62.2924 225.68 61.1933 225.68 59.8374C225.68 58.4816 224.552 57.3824 223.16 57.3824C221.768 57.3824 220.64 58.4816 220.64 59.8374C220.64 61.1933 221.768 62.2924 223.16 62.2924Z" fill="#D9CAB8"/>
<path d="M223.16 34.06C224.552 34.06 225.68 32.9609 225.68 31.605C225.68 30.2492 224.552 29.15 223.16 29.15C221.768 29.15 220.64 30.2492 220.64 31.605C220.64 32.9609 221.768 34.06 223.16 34.06Z" fill="#D9CAB8"/>
<path d="M223.16 5.82748C224.552 5.82748 225.68 4.72834 225.68 3.37248C225.68 2.01662 224.552 0.91748 223.16 0.91748C221.768 0.91748 220.64 2.01662 220.64 3.37248C220.64 4.72834 221.768 5.82748 223.16 5.82748Z" fill="#D9CAB8"/>
<path d="M254.66 118.758C256.052 118.758 257.18 117.658 257.18 116.303C257.18 114.947 256.052 113.848 254.66 113.848C253.268 113.848 252.14 114.947 252.14 116.303C252.14 117.658 253.268 118.758 254.66 118.758Z" fill="#D9CAB8"/>
<path d="M254.66 90.525C256.052 90.525 257.18 89.4258 257.18 88.07C257.18 86.7141 256.052 85.615 254.66 85.615C253.268 85.615 252.14 86.7141 252.14 88.07C252.14 89.4258 253.268 90.525 254.66 90.525Z" fill="#D9CAB8"/>
<path d="M254.66 62.2924C256.052 62.2924 257.18 61.1933 257.18 59.8374C257.18 58.4816 256.052 57.3824 254.66 57.3824C253.268 57.3824 252.14 58.4816 252.14 59.8374C252.14 61.1933 253.268 62.2924 254.66 62.2924Z" fill="#D9CAB8"/>
<path d="M254.66 34.06C256.052 34.06 257.18 32.9609 257.18 31.605C257.18 30.2492 256.052 29.15 254.66 29.15C253.268 29.15 252.14 30.2492 252.14 31.605C252.14 32.9609 253.268 34.06 254.66 34.06Z" fill="#D9CAB8"/>
<path d="M254.66 5.82748C256.052 5.82748 257.18 4.72834 257.18 3.37248C257.18 2.01662 256.052 0.91748 254.66 0.91748C253.268 0.91748 252.14 2.01662 252.14 3.37248C252.14 4.72834 253.268 5.82748 254.66 5.82748Z" fill="#D9CAB8"/>
<path d="M286.16 118.758C287.552 118.758 288.68 117.658 288.68 116.303C288.68 114.947 287.552 113.848 286.16 113.848C284.768 113.848 283.64 114.947 283.64 116.303C283.64 117.658 284.768 118.758 286.16 118.758Z" fill="#D9CAB8"/>
<path d="M286.16 90.525C287.552 90.525 288.68 89.4258 288.68 88.07C288.68 86.7141 287.552 85.615 286.16 85.615C284.768 85.615 283.64 86.7141 283.64 88.07C283.64 89.4258 284.768 90.525 286.16 90.525Z" fill="#D9CAB8"/>
<path d="M286.16 62.2924C287.552 62.2924 288.68 61.1933 288.68 59.8374C288.68 58.4816 287.552 57.3824 286.16 57.3824C284.768 57.3824 283.64 58.4816 283.64 59.8374C283.64 61.1933 284.768 62.2924 286.16 62.2924Z" fill="#D9CAB8"/>
<path d="M286.16 34.06C287.552 34.06 288.68 32.9609 288.68 31.605C288.68 30.2492 287.552 29.15 286.16 29.15C284.768 29.15 283.64 30.2492 283.64 31.605C283.64 32.9609 284.768 34.06 286.16 34.06Z" fill="#D9CAB8"/>
<path d="M286.16 5.82748C287.552 5.82748 288.68 4.72834 288.68 3.37248C288.68 2.01662 287.552 0.91748 286.16 0.91748C284.768 0.91748 283.64 2.01662 283.64 3.37248C283.64 4.72834 284.768 5.82748 286.16 5.82748Z" fill="#D9CAB8"/>
<path d="M317.66 118.758C319.052 118.758 320.18 117.658 320.18 116.303C320.18 114.947 319.052 113.848 317.66 113.848C316.268 113.848 315.14 114.947 315.14 116.303C315.14 117.658 316.268 118.758 317.66 118.758Z" fill="#D9CAB8"/>
<path d="M317.66 90.525C319.052 90.525 320.18 89.4258 320.18 88.07C320.18 86.7141 319.052 85.615 317.66 85.615C316.268 85.615 315.14 86.7141 315.14 88.07C315.14 89.4258 316.268 90.525 317.66 90.525Z" fill="#D9CAB8"/>
<path d="M317.66 62.2924C319.052 62.2924 320.18 61.1933 320.18 59.8374C320.18 58.4816 319.052 57.3824 317.66 57.3824C316.268 57.3824 315.14 58.4816 315.14 59.8374C315.14 61.1933 316.268 62.2924 317.66 62.2924Z" fill="#D9CAB8"/>
<path d="M317.66 34.06C319.052 34.06 320.18 32.9609 320.18 31.605C320.18 30.2492 319.052 29.15 317.66 29.15C316.268 29.15 315.14 30.2492 315.14 31.605C315.14 32.9609 316.268 34.06 317.66 34.06Z" fill="#D9CAB8"/>
<path d="M317.66 5.82748C319.052 5.82748 320.18 4.72834 320.18 3.37248C320.18 2.01662 319.052 0.91748 317.66 0.91748C316.268 0.91748 315.14 2.01662 315.14 3.37248C315.14 4.72834 316.268 5.82748 317.66 5.82748Z" fill="#D9CAB8"/>
<path d="M349.16 118.758C350.552 118.758 351.68 117.658 351.68 116.303C351.68 114.947 350.552 113.848 349.16 113.848C347.768 113.848 346.64 114.947 346.64 116.303C346.64 117.658 347.768 118.758 349.16 118.758Z" fill="#D9CAB8"/>
<path d="M349.16 90.525C350.552 90.525 351.68 89.4258 351.68 88.07C351.68 86.7141 350.552 85.615 349.16 85.615C347.768 85.615 346.64 86.7141 346.64 88.07C346.64 89.4258 347.768 90.525 349.16 90.525Z" fill="#D9CAB8"/>
<path d="M349.16 62.2924C350.552 62.2924 351.68 61.1933 351.68 59.8374C351.68 58.4816 350.552 57.3824 349.16 57.3824C347.768 57.3824 346.64 58.4816 346.64 59.8374C346.64 61.1933 347.768 62.2924 349.16 62.2924Z" fill="#D9CAB8"/>
<path d="M349.16 34.06C350.552 34.06 351.68 32.9609 351.68 31.605C351.68 30.2492 350.552 29.15 349.16 29.15C347.768 29.15 346.64 30.2492 346.64 31.605C346.64 32.9609 347.768 34.06 349.16 34.06Z" fill="#D9CAB8"/>
<path d="M349.16 5.82748C350.552 5.82748 351.68 4.72834 351.68 3.37248C351.68 2.01662 350.552 0.91748 349.16 0.91748C347.768 0.91748 346.64 2.01662 346.64 3.37248C346.64 4.72834 347.768 5.82748 349.16 5.82748Z" fill="#D9CAB8"/>
<path d="M380.66 118.758C382.052 118.758 383.18 117.658 383.18 116.303C383.18 114.947 382.052 113.848 380.66 113.848C379.268 113.848 378.14 114.947 378.14 116.303C378.14 117.658 379.268 118.758 380.66 118.758Z" fill="#D9CAB8"/>
<path d="M380.66 90.525C382.052 90.525 383.18 89.4258 383.18 88.07C383.18 86.7141 382.052 85.615 380.66 85.615C379.268 85.615 378.14 86.7141 378.14 88.07C378.14 89.4258 379.268 90.525 380.66 90.525Z" fill="#D9CAB8"/>
<path d="M380.66 62.2924C382.052 62.2924 383.18 61.1933 383.18 59.8374C383.18 58.4816 382.052 57.3824 380.66 57.3824C379.268 57.3824 378.14 58.4816 378.14 59.8374C378.14 61.1933 379.268 62.2924 380.66 62.2924Z" fill="#D9CAB8"/>
<path d="M380.66 34.06C382.052 34.06 383.18 32.9609 383.18 31.605C383.18 30.2492 382.052 29.15 380.66 29.15C379.268 29.15 378.14 30.2492 378.14 31.605C378.14 32.9609 379.268 34.06 380.66 34.06Z" fill="#D9CAB8"/>
<path d="M380.66 5.82748C382.052 5.82748 383.18 4.72834 383.18 3.37248C383.18 2.01662 382.052 0.91748 380.66 0.91748C379.268 0.91748 378.14 2.01662 378.14 3.37248C378.14 4.72834 379.268 5.82748 380.66 5.82748Z" fill="#D9CAB8"/>
</svg>
