
        <svg xmlns="http://www.w3.org/2000/svg" xmlns:xlink="http://www.w3.org/1999/xlink" version="1.1" width="3300" 
        height="3074.326706825556" viewBox="0 0 3300 3074.326706825556">
			<rect fill="#ffffff" width="3300" height="3074.326706825556"/>
			<g transform="scale(15) translate(10, 10)">
				<defs id="SvgjsDefs6492"></defs><g id="SvgjsG6493" featureKey="symbolFeature-0" transform="matrix(0.9870251138973606,0,0,0.9870251138973606,50.91880530140442,-4.91040231183403)" fill="#00adb5"><path xmlns="http://www.w3.org/2000/svg" d="M71.047,14.75l-0.099-0.256l-3.132-0.561l0.177-3.191l-0.236-0.158c-0.522-0.355-1.083-0.65-1.645-0.877  c-0.581-0.227-1.182-0.394-1.812-0.492l-0.276-0.049l-2.059,2.443l-2.659-1.743l-0.256,0.118c-1.152,0.561-2.137,1.34-2.925,2.305  l-0.177,0.217l1.074,3.004l-2.846,1.448l-0.02,0.276c-0.089,1.251,0.098,2.492,0.552,3.684l0.098,0.266l3.132,0.561l-0.177,3.181  l0.227,0.158c0.532,0.355,1.083,0.65,1.655,0.877s1.182,0.394,1.802,0.502L61.72,26.5l2.059-2.433l2.669,1.743l0.246-0.128  c1.152-0.552,2.137-1.33,2.935-2.295l0.177-0.217l-1.083-3.004l2.856-1.448l0.02-0.276C71.688,17.192,71.501,15.951,71.047,14.75z   M62.705,21.162c-1.842,0-3.349-1.507-3.349-3.349c0-1.852,1.507-3.349,3.349-3.349c1.852,0,3.349,1.497,3.349,3.349  C66.054,19.655,64.557,21.162,62.705,21.162z M62.705,15.449c-1.3,0-2.364,1.064-2.364,2.364c0,1.3,1.064,2.364,2.364,2.364  s2.364-1.064,2.364-2.364C65.069,16.513,64.005,15.449,62.705,15.449z"></path><path xmlns="http://www.w3.org/2000/svg" d="M84.167,39.758l-0.049-0.325c-0.167-0.946-0.453-1.862-0.837-2.748l-0.138-0.296l-4.629,0.089l0.975-4.531l-0.266-0.187  c-0.778-0.552-1.635-1.005-2.531-1.349l-0.305-0.118l-3.211,3.339l-2.512-3.9l-0.315,0.059c-0.955,0.167-1.881,0.453-2.758,0.837  l-0.295,0.138l0.098,4.629l-4.531-0.985l-0.187,0.266c-0.552,0.788-1.015,1.645-1.359,2.541l-0.118,0.305l3.349,3.211l-3.9,2.502  l0.059,0.325c0.158,0.946,0.443,1.871,0.837,2.748l0.128,0.305l4.639-0.098l-0.985,4.531l0.266,0.187  c0.778,0.542,1.596,0.985,2.423,1.31c0.039,0.02,0.079,0.03,0.118,0.039l0.305,0.118l3.201-3.339l2.502,3.891l0.325-0.059  c0.975-0.177,1.911-0.453,2.758-0.827l0.295-0.128l-0.089-4.639l4.531,0.985l0.187-0.266c0.552-0.788,1.005-1.645,1.349-2.541  l0.118-0.305l-3.339-3.211L84.167,39.758z M68.309,41.215c0-2.275,1.862-4.137,4.137-4.137c2.285,0,4.147,1.862,4.147,4.137  c0,2.285-1.862,4.147-4.147,4.147C70.171,45.362,68.309,43.5,68.309,41.215z M75.608,41.215c0,1.743-1.418,3.162-3.162,3.162  c-1.734,0-3.152-1.418-3.152-3.162c0-1.734,1.418-3.152,3.152-3.152C74.189,38.063,75.608,39.482,75.608,41.215z"></path><path xmlns="http://www.w3.org/2000/svg" d="M46.443,29.337c-0.492-0.522-0.955-0.995-1.507-1.438l0.059-1.123l-0.079-1.399c1.005-0.886,1.999-1.96,2.807-3.181  c-0.128-0.561-0.315-1.093-0.522-1.625c-0.177-0.542-0.414-1.054-0.67-1.566c-0.699-0.197-1.418-0.335-2.137-0.414  c-0.709-0.089-1.369-0.158-2.078-0.138c-0.227-0.295-0.443-0.611-0.68-0.896c-0.325-0.335-0.621-0.699-0.955-1.024  c0.098-0.66,0.167-1.359,0.197-2.078c0.01-0.699-0.02-1.418-0.089-2.167c-0.936-0.65-1.921-1.211-2.965-1.674  c-1.34,0.64-2.541,1.379-3.585,2.295c-0.364-0.098-0.729-0.207-1.103-0.246c-0.463-0.049-0.916-0.177-1.389-0.177  c-0.345-0.571-0.739-1.162-1.182-1.724c-0.443-0.532-0.926-1.074-1.458-1.605c-1.133,0.108-2.256,0.305-3.349,0.63  c-0.325,0.63-0.571,1.359-0.788,2.029c-0.217,0.66-0.374,1.34-0.483,2.029c-0.345,0.167-0.689,0.305-1.005,0.522  c-0.394,0.246-0.808,0.453-1.172,0.758c-1.3-0.463-2.679-0.729-4.176-0.857l-1.143,1.261l-1.024,1.369  c0.217,0.719,0.453,1.408,0.709,2.059c0.256,0.65,0.601,1.29,0.936,1.871c-0.187,0.335-0.296,0.689-0.433,1.044l-0.236,0.66  l-0.167,0.68c-1.31,0.473-2.521,1.162-3.743,2.029c-0.03,0.571-0.069,1.133-0.069,1.704c0.03,0.561,0.049,1.133,0.089,1.694  c1.251,0.847,2.482,1.507,3.782,1.96c0.079,0.374,0.217,0.729,0.345,1.074l0.246,0.66l0.295,0.63  c-0.68,1.202-1.182,2.521-1.556,3.96c0.66,0.926,1.399,1.793,2.216,2.581c0.749-0.079,1.448-0.177,2.137-0.325  c0.709-0.167,1.379-0.364,2.009-0.591c0.305,0.217,0.64,0.404,0.955,0.601c0.384,0.266,0.827,0.424,1.241,0.64  c0.118,0.699,0.305,1.33,0.532,2.019c0.217,0.68,0.492,1.359,0.827,2.009c0.552,0.138,1.093,0.286,1.665,0.355  c0.561,0.079,1.123,0.187,1.684,0.197c0.522-0.542,1.005-1.044,1.428-1.625c0.433-0.581,0.818-1.162,1.162-1.734  c0.374-0.039,0.739-0.108,1.113-0.158c0.473-0.049,0.916-0.207,1.369-0.315c0.532,0.463,1.093,0.837,1.694,1.212  c0.611,0.374,1.261,0.729,1.93,1.005c0.512-0.246,1.024-0.483,1.507-0.788c0.483-0.295,0.975-0.581,1.418-0.936  c0.138-1.468,0.049-2.915-0.187-4.245l0.768-0.837c0.296-0.355,0.561-0.739,0.847-1.113c1.34-0.03,2.787-0.217,4.186-0.63  c0.266-0.502,0.453-1.044,0.65-1.576c0.207-0.532,0.345-1.083,0.483-1.635C47.399,30.43,46.936,29.869,46.443,29.337z   M20.431,26.461c0-5.634,4.59-10.224,10.224-10.224c5.644,0,10.224,4.59,10.224,10.224c0,5.644-4.58,10.234-10.224,10.234  C25.021,36.694,20.431,32.105,20.431,26.461z M39.893,26.461c0-5.092-4.137-9.239-9.239-9.239c-5.092,0-9.239,4.147-9.239,9.239  c0,5.102,4.147,9.249,9.239,9.249C35.757,35.709,39.893,31.563,39.893,26.461z M27.828,26.461c0-1.556,1.271-2.817,2.827-2.817  c1.556,0,2.827,1.261,2.827,2.817c0,1.566-1.271,2.827-2.827,2.827C29.098,29.288,27.828,28.027,27.828,26.461z M30.655,28.303  c-1.015,0-1.842-0.827-1.842-1.842c0-1.005,0.827-1.832,1.842-1.832c1.014,0,1.842,0.827,1.842,1.832  C32.496,27.475,31.669,28.303,30.655,28.303z"></path><path xmlns="http://www.w3.org/2000/svg" d="M50.584,41.403c-1.026-0.86-2.331-1.333-3.67-1.333c-3.153,0-5.717,2.565-5.717,5.718c0,0.946,0.236,1.882,0.682,2.711  c0.151,0.279,0.441,0.452,0.759,0.452c0.141,0,0.282-0.036,0.41-0.103c0.417-0.227,0.574-0.75,0.349-1.168  c-0.312-0.577-0.476-1.231-0.476-1.892c0-2.203,1.792-3.995,3.994-3.995c0.936,0,1.846,0.331,2.564,0.932  c0.365,0.304,0.909,0.255,1.215-0.109C50.995,42.254,50.947,41.709,50.584,41.403z"></path><path xmlns="http://www.w3.org/2000/svg" d="M31.518,47.095c0,0.475-0.387,0.862-0.862,0.862c-0.851,0-1.713-0.051-2.56-0.152c-0.229-0.027-0.434-0.141-0.576-0.322  c-0.142-0.181-0.206-0.407-0.178-0.635c0.026-0.228,0.146-0.441,0.331-0.584c0.183-0.14,0.404-0.202,0.635-0.168  c0.777,0.09,1.571,0.138,2.349,0.138C31.132,46.233,31.518,46.62,31.518,47.095z M24.541,45.269  c-1.526-0.496-2.989-1.179-4.351-2.032c-0.402-0.252-0.936-0.128-1.188,0.273c-0.251,0.403-0.129,0.936,0.273,1.189  c1.484,0.927,3.076,1.671,4.732,2.209c0.086,0.028,0.175,0.042,0.266,0.042c0.375,0,0.705-0.24,0.82-0.596  C25.24,45.903,24.992,45.416,24.541,45.269z M31.64,4.998c-1.703-0.081-3.501,0.052-5.205,0.391  c-0.466,0.093-0.769,0.547-0.677,1.013c0.08,0.402,0.435,0.694,0.845,0.694c0.06,0,0.115-0.006,0.169-0.016  c1.545-0.308,3.199-0.432,4.755-0.364c0.23,0.026,0.445-0.037,0.62-0.185c0.188-0.158,0.301-0.389,0.312-0.632  c0.011-0.23-0.068-0.45-0.223-0.62C32.081,5.108,31.868,5.008,31.64,4.998z M23.093,8.197c0.213-0.088,0.378-0.254,0.467-0.467  c0.088-0.213,0.088-0.447,0-0.66c-0.182-0.438-0.685-0.645-1.126-0.467c-1.61,0.668-3.138,1.531-4.541,2.57  c-0.382,0.283-0.463,0.823-0.18,1.205c0.163,0.218,0.421,0.349,0.693,0.349c0.186,0,0.362-0.058,0.512-0.168  C20.209,9.605,21.614,8.809,23.093,8.197z M88.16,37.767c0.085,0.393,0.439,0.679,0.842,0.679c0.062,0,0.124-0.007,0.183-0.02  c0.226-0.049,0.418-0.183,0.543-0.377c0.124-0.193,0.165-0.424,0.115-0.648c-0.376-1.724-1.007-3.377-1.876-4.916  c-0.114-0.202-0.3-0.347-0.523-0.408c-0.224-0.063-0.456-0.032-0.649,0.08c-0.201,0.114-0.346,0.298-0.408,0.52  c-0.062,0.221-0.034,0.454,0.079,0.653C87.25,34.72,87.819,36.214,88.16,37.767z M40.633,7.569c-1.54-0.855-3.172-1.51-4.856-1.947  C35.3,5.508,34.85,5.782,34.73,6.241c-0.119,0.46,0.158,0.931,0.618,1.051c1.54,0.399,3.037,0.999,4.45,1.785  c0.129,0.07,0.272,0.107,0.416,0.107c0.312,0,0.601-0.169,0.754-0.443C41.199,8.327,41.049,7.8,40.633,7.569z M12.104,17.392  c0.126,0.068,0.268,0.105,0.412,0.105c0.315,0,0.606-0.173,0.757-0.451c0.765-1.407,1.703-2.723,2.787-3.91  c0.155-0.169,0.236-0.39,0.225-0.619c-0.01-0.23-0.11-0.442-0.279-0.598c-0.17-0.156-0.375-0.228-0.619-0.226  c-0.23,0.011-0.442,0.11-0.598,0.281c-1.18,1.29-2.2,2.72-3.03,4.25c-0.111,0.202-0.135,0.436-0.069,0.656  C11.755,17.101,11.902,17.283,12.104,17.392z M11.071,29.154c-0.032-0.233-0.161-0.446-0.352-0.586  c-0.188-0.136-0.411-0.189-0.618-0.152c-0.47,0.064-0.801,0.499-0.737,0.971c0.236,1.732,0.683,3.431,1.329,5.05  c0.132,0.329,0.446,0.542,0.8,0.542c0.111,0,0.218-0.021,0.318-0.062c0.214-0.085,0.382-0.247,0.473-0.458  c0.091-0.213,0.094-0.447,0.009-0.662C11.699,32.307,11.287,30.746,11.071,29.154z M14.059,37.208  c-0.125-0.193-0.318-0.326-0.544-0.373c-0.228-0.047-0.456-0.003-0.647,0.12c-0.398,0.259-0.512,0.794-0.253,1.192  c0.95,1.465,2.078,2.812,3.351,4.004c0.161,0.15,0.369,0.232,0.588,0.232c0.238,0,0.467-0.099,0.629-0.272  c0.324-0.346,0.307-0.893-0.039-1.219C15.973,39.794,14.935,38.555,14.059,37.208z M9.998,26.119l0.064,0.003  c0.457,0,0.835-0.358,0.86-0.813c0.093-1.607,0.381-3.196,0.857-4.723c0.068-0.219,0.047-0.453-0.061-0.657  c-0.107-0.204-0.287-0.354-0.505-0.421c-0.217-0.069-0.449-0.049-0.654,0.057c-0.206,0.107-0.357,0.288-0.427,0.51  c-0.517,1.66-0.83,3.389-0.93,5.136c-0.013,0.23,0.063,0.451,0.216,0.622C9.572,26.006,9.783,26.108,9.998,26.119z M55.415,39.771  c-0.317-1.646-0.493-3.092-0.685-4.669l-0.029-0.233c-0.027-0.229-0.149-0.442-0.335-0.584c-0.183-0.14-0.415-0.201-0.624-0.168  c-0.471,0.057-0.809,0.488-0.751,0.959l0.028,0.234c0.191,1.577,0.371,3.066,0.703,4.787c0.078,0.405,0.433,0.699,0.845,0.699  c0.054,0,0.107-0.005,0.164-0.015C55.198,40.691,55.504,40.238,55.415,39.771z M84.848,30.534c0.216,0,0.425-0.082,0.588-0.231  c0.347-0.323,0.366-0.87,0.043-1.219c-0.985-1.056-2.098-1.993-3.309-2.785c-0.263-0.17-0.529-0.335-0.802-0.495  c-0.413-0.236-0.94-0.099-1.177,0.31c-0.116,0.198-0.149,0.431-0.09,0.653c0.058,0.223,0.199,0.41,0.398,0.526  c0.248,0.145,0.491,0.294,0.73,0.45c1.092,0.714,2.098,1.56,2.989,2.516C84.381,30.434,84.611,30.534,84.848,30.534z M80.569,55.409  c-0.222-0.068-0.455-0.047-0.655,0.06c-1.41,0.74-2.919,1.263-4.486,1.557c-0.226,0.042-0.422,0.169-0.552,0.36  c-0.13,0.189-0.178,0.418-0.136,0.645c0.076,0.407,0.432,0.703,0.845,0.703l0.16-0.015c1.733-0.323,3.406-0.904,4.969-1.725  c0.204-0.107,0.354-0.287,0.422-0.507c0.069-0.219,0.047-0.453-0.06-0.656C80.97,55.627,80.79,55.477,80.569,55.409z M71.629,57.279  c-1.602-0.08-3.166-0.399-4.644-0.947c-0.214-0.082-0.449-0.072-0.658,0.021c-0.21,0.096-0.37,0.268-0.451,0.487  c-0.165,0.445,0.063,0.943,0.508,1.107c1.645,0.611,3.38,0.966,5.136,1.052l0.065,0.003c0.461,0,0.839-0.36,0.86-0.818  c0.013-0.23-0.065-0.45-0.22-0.621C72.072,57.392,71.86,57.291,71.629,57.279z M89.39,40.714c-0.466,0-0.852,0.378-0.862,0.844  c-0.033,1.6-0.3,3.175-0.795,4.681c-0.072,0.219-0.055,0.452,0.049,0.658c0.104,0.206,0.282,0.359,0.497,0.43  c0.087,0.029,0.179,0.044,0.272,0.044c0.374,0,0.703-0.239,0.819-0.593c0.549-1.669,0.845-3.413,0.882-5.184  C90.262,41.119,89.884,40.724,89.39,40.714z M87.309,49.41c-0.405-0.25-0.935-0.123-1.185,0.278  c-0.841,1.354-1.875,2.574-3.074,3.625c-0.355,0.314-0.391,0.859-0.079,1.216c0.164,0.187,0.4,0.293,0.648,0.293  c0.21,0,0.412-0.076,0.568-0.214c1.327-1.166,2.472-2.515,3.4-4.011C87.839,50.194,87.714,49.661,87.309,49.41z M53.434,31.848  c0.468-0.08,0.784-0.527,0.703-0.996c-0.282-1.637-0.646-3.264-1.114-4.972c-0.124-0.457-0.593-0.729-1.06-0.605  c-0.221,0.061-0.407,0.204-0.52,0.404c-0.114,0.201-0.144,0.433-0.083,0.654c0.452,1.65,0.804,3.223,1.078,4.811  c0.071,0.415,0.428,0.716,0.848,0.716L53.434,31.848z M44.071,9.942c-0.175-0.148-0.396-0.228-0.629-0.198  c-0.229,0.02-0.437,0.128-0.585,0.304c-0.148,0.176-0.218,0.399-0.199,0.628c0.02,0.23,0.129,0.438,0.305,0.586  c1.218,1.023,2.336,2.199,3.324,3.494c0.164,0.216,0.415,0.341,0.686,0.341c0.191,0,0.373-0.062,0.521-0.176  c0.184-0.139,0.302-0.342,0.333-0.57c0.031-0.229-0.029-0.455-0.169-0.638C46.592,12.314,45.385,11.045,44.071,9.942z   M51.785,22.656c0.103-0.207,0.119-0.441,0.046-0.66c-0.175-0.521-0.362-1.061-0.561-1.62c-0.385-1.077-0.848-2.138-1.379-3.154  c-0.22-0.418-0.741-0.582-1.163-0.364c-0.204,0.106-0.355,0.287-0.423,0.506c-0.069,0.22-0.048,0.453,0.059,0.657  c0.492,0.942,0.924,1.929,1.283,2.934c0.197,0.549,0.38,1.077,0.551,1.588c0.116,0.352,0.444,0.589,0.817,0.589  c0.097,0,0.19-0.015,0.273-0.045C51.506,23.014,51.682,22.861,51.785,22.656z M60.117,51.352c-0.144-0.178-0.35-0.29-0.578-0.314  c-0.234-0.02-0.456,0.043-0.634,0.188c-0.179,0.145-0.29,0.352-0.315,0.581c-0.023,0.23,0.044,0.454,0.189,0.632  c1.126,1.384,2.425,2.585,3.861,3.567c0.143,0.098,0.312,0.15,0.486,0.15c0.284,0,0.549-0.139,0.712-0.376  c0.268-0.392,0.166-0.929-0.225-1.198C62.315,53.693,61.138,52.606,60.117,51.352z M56.967,45.584  c-0.234-0.7-0.441-1.362-0.625-1.993c-0.134-0.457-0.603-0.719-1.069-0.586c-0.456,0.134-0.719,0.613-0.587,1.069  c0.19,0.65,0.404,1.335,0.646,2.057c0.32,0.958,0.713,1.897,1.166,2.79c0.148,0.29,0.442,0.47,0.769,0.47  c0.134,0,0.265-0.031,0.391-0.093c0.423-0.214,0.593-0.735,0.378-1.159C57.62,47.321,57.26,46.461,56.967,45.584z M75.461,25.428  c0.478,0.09,0.953,0.195,1.417,0.327c0.078,0.023,0.159,0.035,0.241,0.035c0.383,0,0.724-0.257,0.828-0.624  c0.131-0.457-0.134-0.935-0.591-1.066c-0.575-0.165-1.166-0.29-1.761-0.396l0.109-1.39l-3.99,1.905l3.645,2.504L75.461,25.428z"></path><path xmlns="http://www.w3.org/2000/svg" d="M59.954,84.026H43.832c-1.605-1.431-3.271-3.838-4.241-8.262c-0.154-0.701-0.291-1.385-0.427-2.055  c-0.708-3.51-1.319-6.541-3.679-9.593c-1.186-1.534-0.805-2.339-0.472-2.684c0.785-0.808,2.703-0.499,4.368,0.705  c1.494,1.081,3.559,3.897,4.71,5.562l0.684-22.468c0.037-1.132,0.953-2.019,2.085-2.019c1.146,0,2.106,0.896,2.188,2.039  l1.084,16.106c0.114-0.089,0.227-0.214,0.364-0.37c0.326-0.372,0.732-0.835,1.467-0.835c0.78,0,1.219,0.565,1.538,0.977  c0.509,0.655,0.712,0.641,1.256,0.007c0.35-0.407,0.83-0.965,1.637-0.965c0.837,0,1.274,0.585,1.594,1.011  c0.435,0.58,0.557,0.584,1.007,0.002c0.337-0.436,0.798-1.032,1.674-1.032c1.695,0,2.341,1.75,2.472,6.685  C63.228,70.149,63.456,79.504,59.954,84.026z M42.645,85.011v9.472c0,0.272,0.22,0.492,0.492,0.492h17.869  c0.272,0,0.492-0.22,0.492-0.492v-9.472H42.645z"></path></g><g id="SvgjsG6494" featureKey="nameFeature-0" transform="matrix(1.5381067857203627,0,0,1.5381067857203627,-0.3076214304867194,95.34161303363376)" fill="#393e46"><path d="M8.52 39.44 c0 -0.52 0.4 -0.76 0.4 -0.84 l3.32 0 c0.28 0 0.08 -0.04 0.6 -0.72 l0 -5.28 c0 -0.04 -0.08 -0.28 -0.08 -0.36 c0 -0.28 0.08 -0.32 0.08 -0.64 c0 -0.36 -0.08 -0.48 -0.08 -0.88 c0 -0.36 0.08 -0.24 0.08 -0.6 c0 -0.2 -0.12 -1.36 -0.12 -1.68 c0 -0.24 0.12 -0.44 0.12 -0.52 c-0.8 -2.04 -1.04 -2.72 -1.88 -3.76 c0 -0.6 -0.88 -0.8 -0.88 -1.56 c0.04 0 0.04 0 0.04 -0.04 s-1.4 -2.6 -1.76 -2.84 c-0.44 -0.44 -0.52 -0.56 -0.52 -0.6 s0.08 0 0.08 -0.12 c0 -0.16 -0.24 -0.72 -1.52 -2.6 c0.04 0 0.04 -0.04 0.04 -0.08 c0 -0.16 -0.72 -0.48 -0.72 -1.24 c0.04 0 0.04 -0.04 0.04 -0.04 c0 -0.24 -1.08 -0.8 -1.08 -1.56 c0 -0.6 -0.76 -1.4 -1.64 -2.32 c0 -0.64 0.64 -0.44 0.64 -0.64 c0 -0.16 -0.16 -0.16 -0.28 -0.16 c-0.08 0 -0.2 0.24 -0.32 0.24 c-0.36 0 -0.36 -0.24 -0.6 -0.24 c0 0.24 0.24 0.48 0.24 0.8 c0 0.08 -0.56 0.2 -0.8 0.2 c0 -0.04 -0.04 -0.04 -0.12 -0.04 c-0.16 0 -0.52 0.08 -0.84 0.08 c-0.4 0 -0.76 -0.12 -0.76 -0.64 c0 -0.44 0 -0.88 0.88 -0.88 c0.32 0.04 2.92 0.08 5.08 0.08 l6.28 0.04 c0.2 0 0.76 -0.04 0.88 -0.04 c0.04 0.08 0.52 0.04 0.52 0.32 c0 0.36 0.04 0.76 -0.36 0.96 c-0.92 0 -1.16 -0.08 -1.32 -0.08 c-0.16 0.2 -1.84 -0.04 -1.84 0.28 c0 1.16 1 1.36 1 2.08 c0 0.04 -0.04 0.08 -0.04 0.12 c0 0.16 0.68 0.56 0.68 0.96 c0 0.28 0.88 0.88 0.88 1.32 c0 0.8 1.08 1.44 1.08 2.04 c-0.04 0.04 -0.04 0.04 -0.04 0.08 c0 0.24 0.8 0.8 0.8 1.32 c0.12 0 0.28 1 0.76 1.36 c0.04 0 0.44 1.04 0.68 1.16 l-0.04 0 c0 0.08 0.4 0.48 0.4 0.76 c-0.04 0.2 0.84 0.88 0.84 1.28 c0 0.56 0.28 0.4 0.4 0.56 c0.56 0 0.8 -0.76 1 -1.28 c0.32 0 1.12 -2.64 1.48 -2.88 c0.16 -1.44 -0.36 1.12 1.24 -2.36 c0.36 -0.16 0.44 -1.28 0.72 -1.48 c0.04 0 0.92 -1.64 0.88 -1.56 c0 -0.64 1.36 -2 1.36 -2.76 l0.2 -0.16 c0 -0.52 0.04 -0.76 -0.2 -0.76 l-0.84 0 c-0.08 -0.04 -0.16 -0.08 -0.2 -0.16 l-1.08 0 c-0.12 0.24 -0.72 0.24 -1.04 0.24 c-0.4 0 -0.4 0.04 -1.04 -0.6 c0 -0.8 0.4 -0.6 0.64 -0.84 l2.12 0 c0.08 0 0.24 -0.08 0.28 -0.08 c0.32 0 0.56 0.08 0.8 0.16 c0.32 0 3.48 -0.16 3.6 -0.16 c0.36 0 0.52 0.08 0.8 0.08 c0.12 0 0.44 -0.08 0.64 -0.08 c0.04 0.08 0.08 0.08 0.12 0.08 c0.08 0 0.16 -0.04 0.28 -0.04 c0.2 0 0.44 0.12 0.72 0.68 c0 0.92 -0.76 0.84 -1.16 0.84 c-0.2 0 -1.04 0 -1.36 -0.2 l0.08 -0.08 c0 -0.16 -0.32 -0.16 -0.32 -0.16 c-0.64 0 -1.16 0.52 -1.68 1.32 c-0.16 0 -0.6 2.48 -1.64 2.96 c0 0.96 -0.68 1.08 -0.68 1.64 c0 0.04 0.04 0.04 0.04 0.08 c0 0.24 -0.52 0.48 -0.52 0.72 c-0.08 0.88 -0.6 0.92 -0.96 1.84 c-0.16 -0.36 -0.08 0.84 -0.36 0.92 c0.4 -0.12 -0.52 0.24 -0.52 0.8 c0.04 0 0.04 0 0.04 0.04 c0 -0.04 0 -0.04 -0.04 -0.04 c-0.08 0 -0.72 1.44 -0.92 1.56 c0 0.2 -0.32 0.56 -0.32 0.76 c0.04 0 0.04 0.04 0.04 0.08 c0 0.16 -0.72 0.64 -0.72 1.2 c-0.64 1.28 -0.64 1.2 -0.64 1.76 l0 6.84 c0 0.08 -0.12 0.36 -0.12 0.36 c0 0.04 0.04 0.16 0.12 0.36 l0 4 c0 0.44 0.16 0.6 0.52 0.6 c0.56 0 0.92 -0.08 2.44 -0.08 c0.52 0 1.04 0.04 1.28 0.28 c0 0.96 -0.2 0.88 -0.32 0.96 l0 -0.32 c-0.16 0 -0.36 -0.04 -0.36 0.16 c0 0.04 0.04 0.12 0.16 0.2 c-0.16 0 -0.36 0.12 -0.44 0.12 c-0.28 0 -0.92 -0.12 -1.36 -0.16 c-0.4 0 -0.24 0.04 -0.32 0.12 c-0.44 0 -0.76 -0.12 -0.8 -0.12 l-0.72 0 l0.08 0.04 l-0.16 0 c-0.08 0 -0.84 0.08 -0.92 0.08 c-1.48 0 -1.2 0 -1.48 -0.08 c-0.04 0 -0.32 0.08 -0.44 0.08 l-5.48 0 c-0.32 0 -0.56 0.08 -0.92 0.08 c-0.12 0 -0.88 -0.28 -0.88 -0.52 c0 -0.04 0.04 -0.08 0.08 -0.12 z M8.92 39.56 c0 0.24 0.12 0.32 0.28 0.32 l0.08 -0.04 l0 0.04 c0 -0.16 -0.04 -0.32 -0.36 -0.32 z M10.24 39.76 c0 0.12 0.04 0.12 0.08 0.12 c0.08 0 0.2 -0.16 0.24 -0.28 l-0.08 -0.08 c0 0.04 -0.24 0.04 -0.24 0.24 z M10.8 39.56 c0 0.16 0.16 0.32 0.4 0.32 c0.32 0 0.24 0 0.32 -0.04 c-0.08 -0.48 -0.04 -0.52 -0.24 -0.68 c-0.2 0 -0.48 0.36 -0.48 0.4 z M11.8 39.6 l0.04 0.08 c0.12 -0.12 0.04 -0.12 0.08 -0.12 c-0.08 0 -0.12 0 -0.12 0.04 z M20.16 39.56 l0 0.12 c0.08 0 0.12 -0.12 0.12 -0.12 l-0.12 0 z M18.24 39.6 l-0.08 -0.04 z M13.64 39.44 c-0.04 0 -0.08 0.04 -0.12 0.08 l0.12 0.04 l0 -0.12 z M8.84 39.32 l0 0.12 l0.16 0 c-0.08 -0.12 -0.12 -0.12 -0.16 -0.12 z M20.28 39.36 c-0.04 0 -0.08 0.04 -0.08 0.08 s0.04 0.08 0.08 0.08 s0.04 -0.04 0.04 -0.08 s0 -0.08 -0.04 -0.08 z M21.68 39.16 l0 0.16 c0.04 -0.04 0.08 -0.08 0.08 -0.16 l-0.08 0 z M22.16 39.24 l0.08 0.08 c0.12 -0.16 0.16 -0.2 0.16 -0.4 c-0.12 0 -0.24 0.04 -0.24 0.32 z M12.28 25.880000000000003 c-0.04 0 -0.04 0.04 -0.04 0.08 s0 0.08 0.04 0.08 s0.04 -0.04 0.04 -0.08 s0 -0.08 -0.04 -0.08 z M20.2 22.6 l0 0 c-0.04 0 -0.04 0.08 -0.04 0.08 c0.04 0 0.04 -0.04 0.04 -0.08 z M21.76 19 c0.04 0.12 0.08 0.24 0.12 0.28 c0 -0.16 0 -0.28 -0.12 -0.28 z M7.6 17.48 c-0.04 0 -0.08 0.04 -0.08 0.08 c0 0 0.04 0.04 0.08 0.04 s0.04 -0.04 0.04 -0.04 c0 -0.04 0 -0.08 -0.04 -0.08 z M24.2 14.760000000000002 c-0.16 0.12 -0.12 0.28 -0.12 0.32 c0.04 0 0.2 -0.12 0.2 -0.16 c0 -0.12 -0.04 -0.08 -0.08 -0.16 z M24.76 12.96 c-0.04 0 -0.08 0.04 -0.08 0.04 c0 0.04 0.04 0.04 0.08 0.04 l0 -0.08 z M25.64 12.079999999999998 c-0.04 0 -0.08 0.04 -0.08 0.04 c0 0.04 0.04 0.04 0.08 0.04 c0 0 0.04 0 0.04 -0.04 z M0.84 11.04 c-0.04 0 -0.08 0.04 -0.08 0.04 c0 0.04 0.04 0.08 0.08 0.08 s0.04 -0.04 0.04 -0.08 c0 0 0 -0.04 -0.04 -0.04 z M2 11.04 l0.08 0.04 c0.08 0 0.08 -0.04 0.08 -0.12 c-0.08 0 -0.12 0 -0.16 0.08 z M25.88 10.96 c0 0.04 -0.04 0.04 -0.04 0.08 s0.04 0.04 0.12 0.04 l0 -0.12 l-0.08 0 z M22.28 10.920000000000002 l0 0.04 l0.12 0 c-0.08 -0.04 -0.12 -0.04 -0.12 -0.04 z M28.36 10.920000000000002 c-0.04 0 -0.08 0.04 -0.08 0.08 c0 0 0.04 0.04 0.08 0.04 l0 -0.12 z M29.92 10.64 c-0.28 0 -0.24 0.16 -0.24 0.4 c0.16 -0.04 0.32 -0.08 0.32 -0.32 z M0.44 10.64 c0 0.08 0.16 0.2 0.2 0.28 l0 -0.16 c0 -0.08 0 -0.2 -0.04 -0.24 c-0.12 0 -0.16 0.04 -0.16 0.12 z M23.2 10.920000000000002 c0 -0.04 -0.04 -0.04 -0.04 -0.04 c-0.04 0 -0.04 0 -0.04 0.04 s0 0.04 0.04 0.04 c0 0 0.04 0 0.04 -0.04 z M1.6 10.36 c-0.04 0.04 -0.04 0.08 -0.04 0.12 c0 0.2 0.4 0.12 0.44 0.24 c0 0 0.08 0 0.12 -0.12 c-0.08 -0.08 -0.36 -0.24 -0.52 -0.24 z M21.4 10.64 c-0.04 0 -0.08 0.04 -0.08 0.04 c0 0.04 0.04 0.04 0.08 0.04 c0 0 0.04 0 0.04 -0.04 z M12.16 10.600000000000001 l0.08 0.04 l0.12 -0.04 l-0.08 -0.08 c-0.04 0 -0.08 0.04 -0.12 0.08 z M23.96 10.04 c0 0.08 0.08 0.6 0.44 0.6 c0.04 0 0.12 -0.04 0.12 -0.28 c0 -0.04 -0.44 -0.32 -0.56 -0.32 z M25.76 10.600000000000001 c-0.04 0 -0.08 0 -0.08 0.04 l0.08 0 l0.04 0 c0 -0.04 0 -0.04 -0.04 -0.04 z M13.72 10.52 l0 0 s-0.12 0 -0.12 0.08 c0.12 0 0.12 0 0.12 -0.08 z M28.36 10.36 l0 0 c-0.04 0 -0.08 0 -0.08 0.08 s0.04 0.16 0.08 0.16 l0 -0.24 z M28.84 10.600000000000001 c0 -0.04 -0.04 -0.04 -0.04 -0.04 c-0.04 0 -0.04 0 -0.04 0.04 s0 0.04 0.04 0.04 c0 0 0.04 0 0.04 -0.04 z M29 10.52 c-0.04 0 -0.08 0.04 -0.08 0.08 c0 0 0.04 0.04 0.08 0.04 l0.04 -0.04 c0 -0.04 -0.04 -0.08 -0.04 -0.08 z M29 10.440000000000001 c0.04 0.08 0.08 0.2 0.12 0.2 s0.04 -0.12 0.04 -0.2 c0 -0.04 0 -0.08 -0.04 -0.08 c-0.12 0 -0.12 0 -0.12 0.08 z M0.64 10.280000000000001 c0 0 -0.04 0.04 -0.04 0.08 l0.08 0 c0 -0.04 -0.04 -0.08 -0.04 -0.08 z M29.76 10.280000000000001 l0.04 -0.08 z M45.17 39.52 c-0.04 0 -0.32 -0.04 -0.36 -0.04 c-1.8 -1.12 -2.16 -1.16 -2.92 -1.48 c0 -0.72 -0.8 -0.48 -1.08 -0.92 c0 -0.28 -1.32 -0.72 -1.32 -1.36 c-0.68 -0.08 -0.36 -0.88 -0.88 -1.08 c0.08 -0.12 -0.84 -0.6 -0.84 -1.12 c0 -0.48 -1.04 -1.6 -1.04 -2.04 c0 -0.56 -0.92 -2.08 -0.92 -3.04 c-0.04 0 -0.48 -2.12 -0.48 -2.84 c0 -0.96 0.12 -1.8 0.12 -2.48 c0 0 0.72 -2.56 0.72 -2.92 c-0.04 0 -0.08 -0.04 -0.08 -0.08 c0 -0.2 0.6 -0.56 0.6 -1.24 c0.44 -1.32 -0.2 0.12 0.76 -1.84 c0.52 0 -0.04 -0.28 0.84 -1.16 l0 0.08 c0.04 0 0.04 -0.96 0.64 -0.96 c0 -0.04 0.4 -1.08 1.36 -1.68 c0.08 0 0.2 -0.52 0.36 -0.52 c2.4 -2 1.92 -1.32 2.84 -2.24 l0 0.08 c0.16 0 1.04 -0.64 1.24 -0.64 c0 0 0.8 -0.68 2.04 -0.68 c0.08 0 0.12 0.04 0.12 0.04 c0.2 0 -0.44 -0.48 3.24 -0.48 c1.52 0 1.4 0.32 2.6 0.32 c-0.04 0 -0.04 -0.04 -0.04 -0.04 c0.04 0 0.52 0.44 0.76 0.44 l1.24 0.16 l0.4 0.32 l0 0.08 c0.16 0 1.2 0.48 1.28 0.48 c0.04 0.04 0.04 0.08 0.08 0.08 c0.12 0 0.24 -0.28 0.6 -0.4 c1 -0.12 0 -0.64 1.92 -0.64 c-0.4 0.2 0.52 -0.32 0.52 0.64 c0 1.84 0.16 3.04 0.16 5.04 c0 0.32 -0.08 0.48 -0.08 0.68 c0 0.16 0.24 0.76 0.24 2.2 c0 0.64 -0.2 0.36 -0.4 0.56 l-1.04 0 c-0.12 0 -0.72 -0.96 -0.76 -1.2 l0 -0.04 c-0.08 0 -0.2 -0.76 -0.52 -1.12 c-0.04 0 -0.28 -1.28 -0.88 -2.12 c0 -0.08 -0.88 -0.88 -0.88 -1.08 c0.04 0 0.04 0 0.04 -0.04 c0 -0.12 -0.76 -0.56 -0.8 -0.68 c0.04 -0.52 -1.12 -0.72 -1.12 -1.2 c-0.4 0 -1 -1.08 -3.12 -1.08 c-2.6 0 -3.28 0.12 -4.16 0.64 c0 0.28 -1.2 0.16 -1.2 0.88 c-0.04 0 -0.44 0.28 -0.52 0.28 c-0.12 0.12 -0.16 0.12 -0.16 0.16 s0.04 0.04 0.04 0.12 l0 0 c-0.08 0 -1.48 2.44 -1.48 3.56 c0 0.16 -0.2 1.08 -0.24 1.12 l-0.12 1.64 l-0.08 0.08 l0 0.84 c-0.12 0 -0.24 1.52 -0.24 1.88 c0 0 0 0.2 0.04 0.56 c0 0 -0.04 0.36 -0.04 0.72 c0 0.4 0 0.92 0.04 1.08 c-0.04 0.08 -0.04 0.16 -0.04 0.24 c0 0.2 0.04 0.64 0.04 0.92 c-0.04 0.04 -0.04 0.12 -0.04 0.24 c0 0.28 0.04 0.72 0.04 1 c0 0.52 -0.04 0.52 -0.04 0.8 s0 0.52 0.16 0.8 c0 0.28 0 0.28 -0.04 0.4 l0.04 0.16 c0 0.48 0.04 0.72 -0.04 0.8 c0.12 3.64 0.84 6.28 1.44 6.56 c0 0.28 -0.32 0.2 1.44 1.96 c0 0 0.84 0.96 1.76 0.96 l-0.04 -0.04 c0.04 0 0.48 0.4 1.72 0.4 c3.04 0 3.28 0.08 4.04 -0.68 c0.24 -0.2 1 -0.28 1.12 -0.32 c0.68 -1.08 0.72 -0.48 1.12 -1.12 c-0.08 -0.24 0.92 -0.92 1.44 -1.6 c0 0 0.2 -1.24 0.76 -1.76 l-0.04 0.04 l0 -0.04 c0 -0.12 0.8 -1.6 0.96 -1.72 c0 0.08 0 0.08 0.04 0.08 s0.2 -1.4 0.96 -1.4 c0.04 0.04 0.08 0.04 0.08 0.04 c0.12 0 0.16 -0.08 0.32 -0.08 c0.12 0 0.32 0.08 0.72 0.44 c0 2.44 -0.24 3.48 -0.24 4.88 c0 0.2 0.04 0.36 0.04 0.44 l-0.04 2.76 c-0.08 0.32 -0.08 0.88 -0.68 0.88 c-1.88 0 -0.2 -0.08 -2.52 -1.04 c-0.16 0 -0.72 0.28 -1.04 0.28 c0 -0.04 -0.04 -0.04 -0.08 -0.04 c-0.2 0 -0.72 0.76 -1.12 0.76 c0.08 0 -2.36 0.04 -2.88 0.48 c-0.36 0 -0.68 -0.08 -1.12 -0.08 c0 0.16 -1 0 -0.96 0.16 c-1.72 0 -2.32 -0.48 -3.24 -0.48 c-0.44 0 -1.08 -0.04 -1.08 -0.36 z M50.93 39.96 c-0.04 0 -0.08 0.04 -0.08 0.08 s0.04 0.08 0.08 0.08 l0 -0.16 z M50.85 39.88 c-0.04 0 -0.08 0.04 -0.08 0.08 s0.04 0.08 0.08 0.08 s0.04 -0.04 0.04 -0.08 s0 -0.08 -0.04 -0.08 z M47.25 39.84 l0.12 0.04 l0.04 -0.04 l-0.16 0 z M46.45 39.64 c-0.04 0 -0.04 0.04 -0.04 0.08 s0 0.08 0.04 0.08 s0.04 -0.04 0.04 -0.08 s0 -0.08 -0.04 -0.08 z M45.17 39.2 l0 0.08 l0.04 0 z M59.25 39.08 c-0.04 0 -0.04 0.04 -0.04 0.04 l0.08 0 c0 0.04 0 -0.04 -0.04 -0.04 z M59.49 34.4 c0 0 0 -0.04 -0.04 -0.04 c0 0 -0.08 0.04 -0.08 0.08 c0.12 0 0.12 0 0.12 -0.04 z M59.57 34.24 c0 -0.04 -0.04 -0.04 -0.04 -0.04 c-0.04 0 -0.04 0 -0.04 0.04 s0 0.08 0.04 0.08 c0 0 0.04 -0.04 0.04 -0.08 z M37.61 32.44 c-0.04 -0.04 -0.16 0.08 -0.16 0.2 c0.2 0 0.16 -0.04 0.16 -0.2 z M59.650000000000006 31.04 c0 0.04 -0.04 0.08 -0.04 0.16 s0.04 0.16 0.12 0.16 l0.08 -0.08 c0 -0.12 0.04 -0.24 -0.16 -0.24 z M58.69 31.04 c0 0 0.08 0.2 0.16 0.24 c0 -0.12 0 -0.32 0.4 -0.32 c-0.04 -0.04 -0.04 -0.08 -0.12 -0.08 c-0.2 0 -0.28 0.16 -0.44 0.16 z M36.81 30.119999999999997 l0.08 -0.04 z M36.17 28.36 c-0.12 0 -0.08 0.32 -0.08 0.4 s0 0.08 0.04 0.08 c0.08 0 0.16 -0.04 0.16 -0.08 l0 -0.32 s-0.08 -0.08 -0.12 -0.08 z M35.97 27.96 c0.08 0 0.04 0.08 0.24 0.08 c0 0 0.04 0 0.16 -0.04 c-0.08 -0.04 -0.32 -0.04 -0.4 -0.04 z M36.09 24.759999999999998 c0 -0.04 0 -0.04 -0.04 -0.04 l0 0.12 c0.04 0 0.04 -0.04 0.04 -0.08 z M36.050000000000004 23.04 l0.04 0.08 c0.08 -0.04 0.12 -0.04 0.12 -0.16 z M36.61 20.52 c-0.2 0 -0.2 0.12 -0.2 0.16 c0.12 -0.04 0.24 -0.08 0.28 -0.16 l-0.08 0 z M36.730000000000004 20.04 c-0.04 0 -0.04 0 -0.04 0.04 c0 0 0 0.04 0.04 0.04 s0.04 -0.04 0.04 -0.04 c0 -0.04 0 -0.04 -0.04 -0.04 z M36.730000000000004 19.56 c-0.04 0 -0.04 0.04 -0.04 0.08 s0 0.04 0.04 0.04 s0.04 0 0.04 -0.04 s0 -0.08 -0.04 -0.08 z M40.49 13.68 c-0.04 0 -0.04 0.04 -0.04 0.04 c0 0.08 0.12 0.24 0.2 0.24 l0 -0.44 c-0.16 0 -0.16 0.04 -0.16 0.16 z M56.81 13.559999999999999 c-0.04 0 -0.04 0.04 -0.04 0.08 c0 0 0 0.04 0.04 0.04 s0.04 -0.04 0.04 -0.04 c0 -0.04 0 -0.08 -0.04 -0.08 z M59.09 11.239999999999998 l0.08 0.08 l0 -0.08 l-0.08 0 z M45.05 10.32 c-0.16 0.08 -0.12 0.16 -0.12 0.24 c0.16 -0.04 0.12 -0.12 0.12 -0.24 z M45.85 10.399999999999999 c0 0.08 0 0.12 0.04 0.12 l0.04 -0.04 l0 -0.08 l-0.08 0 z M46.33 10.48 c0 -0.04 -0.04 -0.04 -0.04 -0.04 c-0.04 0 -0.04 0 -0.04 0.04 s0 0.08 0.04 0.08 c0 0 0.04 -0.04 0.04 -0.08 z M45.61 10.16 c-0.04 0 -0.08 0.04 -0.08 0.08 s0.04 0.08 0.08 0.08 s0.04 -0.04 0.04 -0.08 s0 -0.08 -0.04 -0.08 z M51.81 9.68 c0.04 0.12 0.08 0.2 0.2 0.24 c-0.04 0 0 -0.24 -0.04 -0.28 c-0.12 0 -0.12 0.04 -0.16 0.04 z M46.410000000000004 9.68 l0 0.08 l0.04 0 z M46.650000000000006 9.64 c-0.04 0 -0.04 0.04 -0.04 0.08 c0 0 0 0.04 0.04 0.04 s0.04 -0.04 0.04 -0.04 c0 -0.04 0 -0.08 -0.04 -0.08 z M47.25 9.64 l0 0.04 l0.24 0 z M65.82000000000001 39.44 l0 -0.2 l0.48 -0.48 l1.96 0 l0.16 0.08 l0.92 0.08 c0.16 0.08 0.36 -0.52 0.48 -0.52 l0 -4.84 c0 -0.04 -0.08 -0.52 -0.08 -0.56 c0 0 0.08 -0.96 0.08 -1.16 c0.08 -0.12 -0.12 0.16 -0.12 -0.64 c0 -0.08 0.12 -0.16 0.12 -0.32 c0 -0.28 -0.08 -0.44 -0.08 -0.64 c0 -0.08 0.08 -0.36 0.08 -0.52 l0 -2.52 c0 -0.36 -0.12 -1 -0.12 -1.48 l0.04 -3.44 c-0.04 -0.16 -0.04 -1.2 -0.04 -1.4 c0 -0.12 0.04 -1.04 0.04 -1.16 c0 -0.04 -0.04 -2.08 -0.04 -2.32 c0 -2.48 0.04 -2.92 0.04 -4 c0 -0.48 0 -1.52 -0.04 -1.84 l-0.24 -0.28 s-0.8 -0.04 -1.12 -0.04 c-0.52 0 -0.92 0.12 -1.4 0.12 c-0.44 -0.08 -0.88 0.24 -1.28 -0.68 c0 -0.36 0.08 -0.8 0.44 -0.88 c8.16 0 9 0.08 12.24 0.08 c7.76 0 7.32 -0.08 10.56 -0.08 c0.4 0 0.84 7.32 0.84 7.68 c0 0.04 0.04 0.04 0.04 0.08 c0 0.48 -0.72 0.84 -0.96 0.84 c-0.52 0 -0.8 -0.56 -0.96 -1.2 c0.16 0 -1.72 -3.08 -1.64 -2.92 c-0.52 -0.52 -0.56 -0.6 -0.88 -1 c0 -0.36 -1.72 -1.16 -1.92 -1.44 c0 0.04 -0.04 0.04 -0.04 0.04 c-0.12 0 -0.24 -0.48 -1.08 -0.48 c-1.12 0 -1.04 -0.16 -2.76 -0.16 l0 -0.08 l-1.24 0 l-0.08 0.08 l-0.52 0 l0.28 -0.08 c-0.92 0 -1.32 -0.12 -1.56 -0.12 c-0.36 0 -0.8 0.2 -0.8 1.36 c0 2.24 0.08 3.44 0.08 4 c0 0.6 -0.08 2.36 -0.08 2.6 c0 0.68 0.16 1.24 0.16 1.72 c-0.08 0 -0.16 0.28 -0.16 0.4 s0.16 0.88 0.16 1.24 c0 0.08 -0.08 0.2 -0.08 0.24 c0 0.12 -0.12 1.64 0.28 1.64 c0.92 0 1.6 -0.24 2.32 -0.24 l0 0.04 c0.12 0 0.48 -0.6 0.76 -0.6 c0.48 0 0.56 -0.16 1.08 -0.68 l0 0.04 c-0.04 0 0.68 -1.44 1.08 -1.92 c0.68 -0.32 -0.24 -2 1.76 -2 l0.12 0.08 c0 0.36 0.2 0.48 0.2 1.6 c-0.04 0.32 -0.08 1.36 -0.08 1.28 c0 0.44 0.08 1.12 0.08 1.68 c0 0.48 0 0.48 -0.08 0.72 c0 0.4 0.08 0.92 0.08 1.04 c0 0.52 -0.08 0.52 -0.08 0.92 c0 0.32 0.08 2.48 0.08 2.76 c0 0.16 -0.08 0.32 -0.08 0.56 l0 1.48 c0.04 0.04 -0.32 0.32 -0.52 0.32 c-1.28 0 -0.2 -0.24 -1.64 -2.84 c-1.12 -1.96 -1.48 -1.88 -2.12 -2.44 c0.04 0 -1.16 -0.4 -1.44 -0.4 l-0.12 -0.2 l-1.28 -0.04 c-0.6 0.32 -0.52 2 -0.52 1.36 c0 0.16 0.12 0.56 0.12 1.16 c0 0.28 -0.04 0.76 -0.12 1.2 c0 0.04 0.12 0.4 0.12 0.64 c0 0.4 -0.08 0.36 -0.08 0.52 c0 0.28 0.08 0.44 0.08 0.56 c-0.12 1.56 -0.16 4.36 -0.16 4.84 c0 2.52 -0.04 2.72 0.56 3.32 l1.72 0 c0.16 -0.04 0.36 -0.16 0.52 -0.16 c0.04 0 2.4 0.08 2.72 0.08 s0.04 -0.2 0.88 -0.2 c1.52 -0.6 1.44 -0.08 2.72 -1.08 c-0.04 0 -0.04 -0.04 -0.04 -0.04 c0 -0.12 1 -0.56 1.52 -1.2 c-0.04 0 -0.04 -0.04 -0.04 -0.04 c0 -0.6 1.76 -1.04 1.76 -2.48 c0 -0.16 0.72 -1.08 0.72 -1.32 c1 -2.52 0.36 -2.4 1.64 -2.4 c0.04 0 0.48 0 0.48 0.52 c0 2.6 -0.4 5.8 -0.4 7.6 c0 0.28 0.04 0.56 0.04 0.84 c0 0.48 -0.16 0.88 -1.12 0.88 l-15.4 0 c-2.32 0 -3.16 0.08 -7.44 0.08 c-0.76 -0.24 -0.56 -0.56 -0.56 -0.64 z M66.22000000000001 39.6 l0 -0.04 l0 0.12 c0 0.12 0.04 0.28 0.4 0.28 c0.08 0 0.2 0 0.32 -0.04 l0 -0.08 l-0.32 -0.36 c-0.04 0.08 -0.08 0.16 -0.16 0.2 c-0.04 0 -0.16 -0.04 -0.24 -0.12 l0 0.04 z M80.42 39.76 l0.04 0.08 c0.04 -0.04 0.04 -0.04 0.04 -0.16 z M78.86000000000001 39.68 c-0.12 0 -0.16 0 -0.2 0.08 l0.2 0 l0 -0.08 z M67.62 39.24 c0.08 0 0.24 0.08 0.28 0.08 c0.36 0 0.24 0 0.36 -0.08 c-0.08 0 -0.36 -0.08 -0.4 -0.08 c-0.16 0 -0.16 0 -0.24 0.08 z M89.58000000000001 39.24 c0.04 0.12 0.16 0.08 0.24 0.08 c-0.04 -0.08 -0.12 -0.08 -0.24 -0.08 z M70.7 39.24 c0 -0.04 -0.04 -0.04 -0.08 -0.04 s-0.08 0 -0.08 0.04 s0.04 0.08 0.08 0.08 s0.08 -0.04 0.08 -0.08 z M66.46000000000001 39.12 l0 0.04 l0.4 0 c-0.08 -0.04 -0.32 -0.04 -0.4 -0.04 z M70.14 33.8 l-0.04 -0.04 c-0.04 0 -0.04 0.04 -0.04 0.04 c0 0.04 0 0.08 0.04 0.08 c0 0 0.04 -0.04 0.04 -0.08 z M70.06 32.08 l0 0.16 c0.04 0 0.04 -0.04 0.04 -0.08 s0 -0.08 -0.04 -0.08 z M70.14 31.84 c0.04 0.08 0.12 0.08 0.24 0.08 c0 -0.08 0.04 -0.32 -0.08 -0.4 c0 0.08 -0.16 0.2 -0.16 0.32 z M70.38000000000001 31.08 c0 0.04 0 0.08 0.04 0.12 l0.04 -0.12 l-0.08 0 z M90.38000000000001 31.08 c-0.04 0 -0.08 0.04 -0.08 0.08 c0 0 0.04 0.04 0.08 0.04 s0.04 -0.04 0.04 -0.04 c0 -0.04 0 -0.08 -0.04 -0.08 z M90.58000000000001 31 c-0.04 0 -0.04 0.04 -0.04 0.08 c0 0 0 0.04 0.04 0.04 l0 -0.12 z M70.14 24.96 c-0.04 0 -0.08 0.04 -0.08 0.08 c0 0 0.04 0.04 0.08 0.04 s0.04 -0.04 0.04 -0.04 c0 -0.04 0 -0.08 -0.04 -0.08 z M70.42 24.96 c0 -0.04 0 -0.04 -0.04 -0.04 l0 0.08 c0.04 0 0.04 0 0.04 -0.04 z M70.14 23.2 l-0.04 -0.04 c-0.04 0 -0.04 0.04 -0.04 0.04 c0 0.04 0 0.08 0.04 0.08 c0 0 0.04 -0.04 0.04 -0.08 z M82.9 19.84 c0 -0.04 -0.04 -0.04 -0.08 -0.04 c0 0 -0.04 0 -0.04 0.04 s0.04 0.08 0.04 0.08 c0.04 0 0.08 -0.04 0.08 -0.08 z M88.58000000000001 17.92 c-0.04 0 -0.08 0.04 -0.08 0.08 c0 0 0.04 0.04 0.08 0.04 s0.04 -0.04 0.04 -0.04 c0 -0.04 0 -0.08 -0.04 -0.08 z M74.66000000000001 15.920000000000002 c-0.04 0.04 -0.04 0.12 -0.04 0.16 l0.44 0 c-0.04 -0.08 -0.2 -0.16 -0.4 -0.16 z M70.06 14.36 l0 0.16 c0.04 0 0.04 -0.04 0.04 -0.08 s0 -0.08 -0.04 -0.08 z M70.06 12.32 l0 0.16 c0.04 0 0.04 -0.04 0.04 -0.08 s0 -0.08 -0.04 -0.08 z M88.98 10.84 l0 0.4 l0.04 -0.2 c0 -0.08 0 -0.12 -0.04 -0.2 z M68.66000000000001 11.079999999999998 c-0.04 0 -0.04 0.04 -0.04 0.08 s0 0.08 0.04 0.08 s0.04 -0.04 0.04 -0.08 s0 -0.08 -0.04 -0.08 z M72.02000000000001 11.16 c0 -0.04 -0.04 -0.04 -0.04 -0.04 c-0.04 0 -0.04 0 -0.04 0.04 s0 0.08 0.04 0.08 c0 0 0.04 -0.04 0.04 -0.08 z M67.54 10.760000000000002 c-0.36 0 -0.16 0.28 -0.28 0.32 c0.24 0 0.28 -0.04 0.28 -0.12 c0 -0.04 -0.04 -0.08 -0.04 -0.12 s0.04 -0.04 0.04 -0.08 z M68.5 10.96 l0.12 0.08 l0.04 -0.08 l-0.08 -0.04 z M66.74000000000001 10.84 c-0.04 0 -0.04 0.04 -0.04 0.08 c0 0 0 0.04 0.04 0.04 s0.04 -0.04 0.04 -0.04 c0 -0.04 0 -0.08 -0.04 -0.08 z M67.14 10.68 l-0.28 0.08 l0.28 0 l0 -0.08 z M70.7 10.68 c-0.04 0 -0.08 0.04 -0.08 0.04 c0 0.04 0.04 0.04 0.08 0.04 c0 0 0.04 0 0.04 -0.04 z M74.74000000000001 10.68 l0 0.08 l0.04 0 z M67.34 10.68 l-0.08 0 c0 0.04 0 0.08 0.04 0.08 c0 0 0.04 -0.04 0.04 -0.08 z M68.26 10.64 c-0.08 0 -0.08 0.08 -0.08 0.08 c0.04 0 0.04 -0.04 0.08 -0.08 z M69.98 10.68 l-0.08 0 c0 0.04 0 0.08 0.04 0.08 c0 0 0.04 -0.04 0.04 -0.08 z M76.5 10.64 c-0.08 0 -0.16 0.04 -0.24 0.04 l0.28 0 z M66.14 10.64 c0 0 0 -0.04 -0.04 -0.04 l0 0.08 c0.04 0 0.04 0 0.04 -0.04 z M78.22 10.52 c0 0.16 0.04 0.08 0.08 0.12 c0 0 0.04 0 0.08 -0.04 l-0.08 -0.16 z M88.82000000000001 10.120000000000001 l0 0.48 l0.08 0 c0 -0.12 0.04 -0.48 -0.08 -0.48 z M67.78 10.2 c-0.04 0 -0.08 0.04 -0.08 0.04 c0 0.04 0.04 0.04 0.08 0.04 s0.04 0 0.04 -0.04 c0 0 0 -0.04 -0.04 -0.04 z M66.46000000000001 10.2 l-0.04 -0.08 z M66.94000000000001 10.04 c-0.08 0.04 -0.12 0.08 -0.12 0.12 l0.04 0.04 l0.08 0 l0 -0.16 z M97.51 39.84 c-0.08 0 -0.12 0.04 -0.16 0.04 l0.16 0.16 c-0.04 0 -0.16 0.12 -0.44 0.12 c-0.32 0 -0.56 -0.44 -0.56 -0.64 c0 -0.4 0.12 -0.52 1.8 -0.52 c0.76 0 2.08 -0.04 2.24 -0.32 c0 0 0.16 -1.2 0.24 -1.32 c0 0 -0.08 -1.68 -0.08 -1.84 c0 -0.04 0.08 -0.32 0.08 -0.44 c0 -0.08 0 -0.16 -0.08 -0.32 l0 -5.04 l0.08 -0.12 c0 -1.2 -0.16 -2.08 -0.16 -3.16 c0 -1 0.08 -1.6 0.08 -2.32 l0 -12.48 c-0.12 -0.12 -0.28 -0.56 -0.4 -0.56 c0.04 0 -1.4 0.16 -2.64 0.16 c-0.32 0 -1.2 0 -1.2 -0.4 l0 -0.64 c-0.04 -0.04 0.28 -0.24 0.88 -0.24 l9.4 0 c0.36 0 0.56 0.04 0.8 0.32 c-0.04 0.04 -0.04 0.08 -0.04 0.12 c0 0.28 0.4 0.52 0.4 1.08 c-0.04 0 -0.04 -0.04 -0.04 -0.04 c-0.04 0 -0.04 0.04 -0.04 0.04 c0 0.24 0.92 1.92 0.92 2.96 c0 0.8 0.52 1.24 0.52 1.88 c-0.04 0.04 -0.04 0.04 -0.04 0.08 c0 0.16 0.52 0.6 0.52 1.52 c-0.04 0.04 -0.04 0.04 -0.04 0.08 c0 0.08 0.32 0.2 0.32 0.92 c0 0.04 -0.04 0.04 -0.04 0.08 c0 0.16 0.36 0.24 0.36 1.08 c0.16 1.76 0.6 1.6 0.6 1.84 c0.04 1.2 0.84 1.52 0.84 3.04 c0 0.56 0.68 1.56 0.68 2.32 c0.44 0.76 -0.12 0.48 0.88 2.4 l0.4 0 c0.16 -1 0.92 -2 0.92 -2.76 c0.12 -2.12 0.96 -1.92 0.96 -3.44 l0 -0.04 c0 -0.2 0.6 -1.24 0.6 -1.96 c0 -1.04 0.44 -1.2 0.44 -1.68 l-0.08 0 c0 -0.04 0.4 -0.2 0.4 -0.88 c0.16 -3.16 1.24 -2.4 1.24 -4.16 c0.4 -3.96 1.28 -2.44 1.28 -4.48 c-0.04 0 -0.04 0 -0.04 -0.04 c0 -0.08 0.64 -0.36 1.52 -0.36 c0.2 0 1.8 0.08 2 0.08 c0.24 0 3.52 -0.08 5.64 -0.08 c0.76 0 1.56 0.32 1.52 0.32 l0 0.56 l-0.08 0.08 c-0.08 0 -0.32 0.24 -0.4 0.24 l-0.08 0.08 c-1.08 0 -1.92 -0.16 -2.48 -0.16 c-0.24 0 -0.6 -0.04 -0.84 0.64 l0 14.28 c0 0.08 0.08 0.52 0.08 0.64 c0 0.08 -0.08 0.72 -0.08 0.76 s-0.04 0.04 -0.04 0.08 s0.04 0.12 0.12 0.24 c0 7.24 -0.16 5.36 -0.16 8.88 c0 1.2 0.2 2.4 1.16 2.4 c0.2 0 0.44 -0.12 0.6 -0.12 l0.96 0 l0.04 0.04 c0.4 0 0.16 -0.04 0.68 -0.04 c0.48 0 0.6 0.56 0.6 0.64 c0 0.2 -0.08 0.44 -0.36 0.44 c-0.32 0 -0.36 0.08 -0.36 0.08 c-0.16 0 -1.04 -0.08 -1.16 -0.08 c-1.92 0 -2.72 0.12 -4 0.12 c-0.36 0 -0.88 -0.12 -1.36 -0.12 c-1 0 -1.08 0.08 -1.48 0.08 c-0.8 0 -2.04 -0.12 -2.12 -0.12 c0 0.12 -1.52 0.12 -1.68 0.12 c-0.64 0 -0.64 -0.04 -0.84 -0.12 l0.12 -0.08 c0 -0.08 -0.08 -0.24 -0.12 -0.36 c-0.08 0.04 -0.08 0.12 -0.08 0.2 l0 0.16 c-0.16 0 -0.24 0 -0.24 -0.04 l0 -0.56 c0.32 -0.12 0.6 -0.32 0.72 -0.36 l1.52 0 c0.08 0.04 0 0.04 0.28 0.04 c0.04 0 0.08 0 0.08 -0.08 l0.8 0 c0 0.04 0.04 0.04 0.08 0.04 c0.2 0 0.52 -1 0.52 -3.4 c0 -3.12 -0.08 -3.96 -0.08 -5.6 c0 -0.04 0 -0.08 0.08 -0.2 c0 0.12 -0.2 -6.96 -0.2 -9.2 c-0.04 0.04 -0.04 0.08 -0.04 0.08 l0 0 s0.2 -1.76 0.2 -4.4 c0 -1.2 -0.08 -2.24 -0.48 -2.24 c0 -0.04 0.04 -0.04 0.04 -0.04 c-0.6 0 -0.56 2.08 -1.28 3.4 c0.04 0 0.04 0.04 0.04 0.08 c0 0.2 -0.44 0.76 -0.44 1.2 c0 0.04 0.04 0.08 0.04 0.12 c-0.12 -0.04 -0.08 0.72 -0.4 1.04 c0 2.08 -1.08 2.28 -1.08 3.84 c-0.28 1.2 -0.6 0.92 -0.6 2.04 c-0.08 0.84 -1.04 2.36 -1.04 2.96 c0 1.28 -0.48 0.6 -0.48 1.88 l0.04 0 c0 0.12 -0.56 0.92 -0.56 1.76 c0 2 -1.36 2.72 -1.36 4.28 c0 1.04 -0.64 1.64 -0.64 2.2 c0 0.08 -0.08 1.52 -1 1.52 c-0.84 0 -1.48 -1.84 -1.48 -2.8 c-0.32 -1.4 -0.44 -1.76 -1.08 -3.64 c-0.28 -1.36 -0.84 -1.8 -0.84 -2.52 c0 -0.56 -0.6 -1.28 -0.6 -1.8 c-0.08 -1.12 -0.12 0.08 -1.12 -3.88 c0 0 -0.24 -1.16 -0.4 -1.28 l0 -0.28 s0 -0.08 0.04 -0.12 c0.04 0.04 0.16 0.08 0.2 0.08 s0.04 0 0.04 -0.04 s-0.04 -0.12 -0.08 -0.16 c-0.08 0 -0.16 0 -0.24 0.04 c-0.12 -0.08 -0.56 -0.96 -0.56 -1.52 c-0.08 -1.48 -0.92 -2.88 -1.32 -4.28 l0 0.04 c-0.08 0 -0.92 -4.44 -1.44 -4.44 c-0.4 0 -0.32 0.04 -0.36 0.16 l0 3.44 c0 0.08 0.04 0.32 0.04 0.4 c0 0.32 -0.16 0.28 -0.16 0.44 c0 0.12 0.12 0.4 0.12 1.2 l-0.04 0.04 s0.04 0 0.04 0.08 c0 0.04 0 0.12 -0.08 0.28 c0 -0.04 0.08 1.48 0.08 1.64 c0 0.36 -0.08 1.36 -0.08 2.72 c0 0.72 0.08 3.2 0.08 3.36 c0 0.04 -0.04 0.12 -0.08 0.2 c0.08 0.24 0.08 0.36 0.08 0.72 c0 0.28 0 0.6 -0.08 0.6 c0 0.08 0.04 0.16 0.08 0.24 c0 1.24 -0.12 2 -0.12 2.44 c0 0.48 0.12 1.8 0.12 1.8 c0 0.96 -0.12 1.8 -0.12 3.28 c0 1.2 0.16 2.44 1.12 2.44 c1.24 0 2.04 -0.12 2.04 -0.2 c0.8 0 1.08 0.36 1.08 0.76 c0 0.12 -0.16 0.52 -0.76 0.52 c-0.4 0 -0.36 -0.08 -0.56 -0.24 c-0.12 0 -0.24 0.12 -0.36 0.12 s-0.12 -0.12 -0.2 -0.2 c-0.28 0.2 -0.2 0.32 -0.44 0.32 l0 -0.2 c-0.24 0 0 0.16 -0.88 0.16 c-0.04 0 -0.16 -0.04 -0.24 -0.08 c-0.04 0 -1.2 0.12 -2.04 0.12 l-0.2 -0.04 c0.24 -0.12 0.56 -0.12 0.64 -0.2 c-0.48 0 -0.8 0.04 -1.28 0.04 c0.04 0.08 0.32 0.16 0.52 0.16 l-0.2 0 c-0.2 0 -0.44 0.04 -0.56 0.2 l-0.16 -0.08 l-0.72 0 l-0.04 0.08 l-0.56 0 c-0.16 -0.12 -0.44 -0.16 -0.56 -0.2 c0 -0.2 -0.08 -0.2 -0.08 -0.2 z M97.83000000000001 39.96 c-0.04 0 -0.08 0.04 -0.08 0.04 c0 0.04 0.04 0.04 0.08 0.04 c0 0 0.04 0 0.04 -0.04 z M105.19000000000001 39.88 l0.08 0.08 l0.16 -0.08 l-0.24 0 z M99.35000000000001 39.84 l0 0.04 l0.04 -0.04 l-0.04 0 z M102.39 39.88 l0.04 0 l-0.04 0 z M102.63000000000001 39.76 c-0.04 0 -0.04 0.04 -0.04 0.08 s0 0.04 0.04 0.04 s0.04 0 0.04 -0.04 s0 -0.08 -0.04 -0.08 z M97.35000000000001 39.16 c-0.52 0 -0.56 0.2 -0.56 0.4 l0 0.2 c0.28 -0.12 0.2 -0.4 0.4 -0.44 l0.48 0 l0 -0.08 c-0.04 0 -0.28 -0.08 -0.32 -0.08 z M98.39 39.56 l-0.08 0.08 l0.08 0 l0 -0.08 z M129.43 39.16 l0.44 0.48 c0.04 -0.2 0.04 -0.32 0.08 -0.32 l0 0.2 l-0.08 0.12 c0 -0.4 -0.52 -0.36 -0.52 -0.4 s0 -0.04 0.08 -0.08 z M105.75 39.16 c-0.2 0.04 -0.24 0.08 -0.24 0.24 l0.32 -0.08 c0 -0.08 -0.04 -0.16 -0.08 -0.16 z M111.39 39.08 c0.04 0.08 0.2 0.2 0.32 0.32 c0.08 -0.04 0.12 -0.24 0.16 -0.24 c0 -0.08 -0.12 -0.08 -0.28 -0.08 l-0.2 0 z M128.39000000000001 39.24 l0.12 0.16 l0.12 -0.16 l-0.24 0 z M111.91000000000001 38.84 c-0.04 0 -0.04 0.04 -0.04 0.08 s0 0.08 0.04 0.08 s0.04 -0.04 0.04 -0.08 s0 -0.08 -0.04 -0.08 z M101.11000000000001 33.519999999999996 l0 0.08 l0.04 0 z M106.11000000000001 24.32 l0 0.08 l0.08 0 l0 -0.08 l-0.08 0 z M106.07000000000001 24 c-0.04 0 -0.08 0.04 -0.08 0.04 c0 0.04 0.04 0.08 0.08 0.08 c0 0 0.04 -0.04 0.04 -0.08 z M101.75 19.56 c-0.04 0 -0.08 0.04 -0.08 0.08 c0 0 0.04 0.04 0.08 0.04 l0.04 -0.04 c0 -0.04 -0.04 -0.08 -0.04 -0.08 z M125.35000000000001 16.32 c0 0.12 0 0.16 0.16 0.16 c-0.08 -0.08 -0.12 -0.16 -0.16 -0.16 l0 0 z M125.95 16.32 c-0.08 0.04 -0.12 0.08 -0.12 0.12 s0 0.04 0.04 0.04 s0.04 -0.08 0.08 -0.16 z M118.99000000000001 13.84 c-0.04 0 -0.08 0 -0.08 0.04 l0.08 0 l0.04 0 c0 -0.04 0 -0.04 -0.04 -0.04 z M119.71000000000001 11.32 c0.04 0.08 0.08 0.12 0.12 0.16 c0.04 0 0.12 0.04 0.12 -0.16 c0 -0.12 0 -0.24 -0.08 -0.24 c-0.12 0 -0.12 0.24 -0.16 0.24 z M97.35000000000001 10.84 c0 0.16 0.08 0.2 0.2 0.24 l0.04 -0.08 c-0.04 -0.08 -0.12 -0.12 -0.24 -0.16 z M96.91000000000001 10.760000000000002 c-0.04 0 -0.08 0.04 -0.08 0.04 c0 0.04 0.04 0.04 0.08 0.04 c0 0 0.04 0 0.04 -0.04 z M128.51 10.68 l0 0.04 l0.08 0 z M96.83000000000001 10.52 l0.08 0.16 s0.24 -0.32 0.28 -0.48 c-0.2 0 -0.36 0.04 -0.36 0.32 z M97.35000000000001 10.399999999999999 c-0.04 0 -0.08 0.04 -0.08 0.08 c0 0 0.04 0.04 0.08 0.04 s0.04 -0.04 0.04 -0.04 c0 -0.04 0 -0.08 -0.04 -0.08 z M98.91000000000001 10.399999999999999 l0 0.08 l0.08 -0.08 l-0.08 0 z M126.47 10.399999999999999 c-0.04 0 -0.08 0.04 -0.08 0.08 c0 0 0.04 0.04 0.08 0.04 l0.04 -0.04 c0 -0.04 -0.04 -0.08 -0.04 -0.08 z M128.59 10.399999999999999 c-0.04 0 -0.08 0.04 -0.08 0.08 c0 0 0.04 0.04 0.08 0.04 l0.04 -0.04 c0 -0.04 -0.04 -0.08 -0.04 -0.08 z M121.11000000000001 10.280000000000001 l0.08 0.12 c0.12 0 0.12 -0.04 0.12 -0.08 c0 0 0 -0.04 -0.04 -0.12 c-0.12 0 -0.12 0.04 -0.16 0.08 z M122.03 10.2 l0 0.2 l0.12 0 l0 -0.2 l-0.12 0 z M126.39000000000001 10.399999999999999 c0 -0.04 -0.04 -0.04 -0.04 -0.04 l0 0.12 s0.04 -0.04 0.04 -0.08 z M126.59 10.280000000000001 l-0.08 0.08 l0.08 0 l0 -0.08 z M127.07000000000001 10.280000000000001 c-0.04 0 -0.08 0.04 -0.08 0.08 c0 0 0.04 0.04 0.08 0.04 l0 -0.12 z M129.27 10.2 l0 0.16 l0.08 0 l0 -0.16 l-0.08 0 z M128.79000000000002 10.2 l-0.04 -0.04 c-0.04 0 -0.04 0.04 -0.04 0.04 c0 0.04 0 0.08 0.04 0.08 c0 0 0.04 -0.04 0.04 -0.08 z"></path></g><g id="SvgjsG6495" featureKey="sloganFeature-0" transform="matrix(0.5202661346725275,0,0,0.5202661346725275,19.483259237788204,174.49808803029066)" fill="#00adb5"><path d="M4.62 13.879999999999999 l0.02 5.84 c0 0.22 0.2 0.3 0.36 0.3 l1.84 0 c0.34 0 0.34 -0.3 0.34 -0.44 c0 -1.88 0 -3.9 0.08 -5.8 c0 -0.32 0.04 -0.62 0.2 -0.92 c0.18 -0.3 2.84 -6.24 3.14 -7.22 c0.04 -0.14 0.12 -0.38 -0.02 -0.5 c-0.24 -0.22 -1.2 -0.12 -1.78 -0.12 c-0.36 0 -0.58 0.14 -0.74 0.5 c-0.68 1.58 -1.38 3.14 -2.08 4.72 c-0.06 0.14 -0.14 0.14 -0.24 0 c-0.22 -0.36 -1.64 -3.88 -1.86 -4.66 c-0.04 -0.1 -0.06 -0.2 -0.12 -0.28 c-0.28 -0.32 -0.74 -0.28 -1.12 -0.28 c-0.5 0 -0.86 0.02 -1.34 0.02 c-0.32 0 -0.34 0.3 -0.28 0.56 c0.02 0.1 0.08 0.2 0.12 0.28 c0.76 1.44 2.9 6.2 3.28 7.1 c0.2 0.42 0.18 0.44 0.2 0.9 z M23.2 8.68 c0.42 1.24 0.52 2.58 0.52 3.9 c0 1.1 -0.2 2.16 -0.48 3.22 c-0.36 1.26 -0.96 2.4 -2.04 3.14 c-0.8 0.58 -1.64 0.96 -2.62 1.06 c-0.14 0 -0.26 0.02 -0.4 0.02 c-0.12 0 -0.24 -0.02 -0.38 -0.02 c-0.98 -0.1 -1.82 -0.48 -2.64 -1.06 c-1.06 -0.74 -1.68 -1.88 -2.02 -3.14 c-0.3 -1.06 -0.48 -2.12 -0.48 -3.22 c0 -1.32 0.1 -2.66 0.52 -3.9 c0.74 -2.14 2.78 -3.66 5 -3.7 c2.22 0.04 4.26 1.56 5.02 3.7 z M21.259999999999998 14.04 c0.2 -1.22 0.12 -2.46 -0.12 -3.68 c-0.24 -1.1 -0.72 -2.18 -1.64 -2.84 c-0.16 -0.12 -0.34 -0.22 -0.52 -0.28 c-0.26 -0.12 -0.54 -0.16 -0.8 -0.16 s-0.52 0.04 -0.78 0.16 c-0.2 0.06 -0.36 0.16 -0.52 0.28 c-0.94 0.66 -1.42 1.74 -1.64 2.84 c-0.24 1.22 -0.32 2.46 -0.12 3.68 c0.2 1.1 0.6 2.58 1.64 3.14 c0.44 0.24 0.92 0.4 1.42 0.42 c0.5 -0.02 1 -0.18 1.44 -0.42 c1.04 -0.56 1.44 -2.04 1.64 -3.14 z M25.72 8.28 c0 2.02 0.02 4.06 0.06 6.06 c0.02 1.22 0 2.6 0.58 3.72 c0.74 1.44 2.38 2.08 3.96 1.98 c1.08 -0.08 2.08 -0.36 2.86 -1.16 c1.32 -1.42 1.06 -3.64 1.08 -5.46 c0.04 -2.62 0.1 -5.06 0.1 -7.7 c0 -0.44 -0.14 -0.68 -0.58 -0.7 c-0.54 -0.02 -1.08 0 -1.62 0.04 c-0.22 0 -0.4 0.2 -0.4 0.44 c0.02 1.92 0.06 3.86 0.04 5.8 c-0.02 1.66 0.2 3.5 -0.42 5.08 c-0.24 0.58 -0.78 1.02 -1.42 1.02 c-1.6 -0.04 -1.54 -1.94 -1.6 -3.06 c-0.12 -2.44 0.06 -4.94 0.12 -7.38 c0 -0.46 0 -0.92 0.02 -1.38 c0.02 -0.24 0.06 -0.54 -0.26 -0.56 l-0.36 0 c-0.5 0.04 -1 -0.02 -1.5 0 c-0.48 0.04 -0.64 0.18 -0.64 0.66 c0 0.86 -0.02 1.74 -0.02 2.6 z M38.839999999999996 18.5 c0 -0.52 0 -3.8 0.02 -4.06 c0.02 -0.06 0.06 -0.18 0.14 -0.18 s0.12 0.04 0.14 0.1 c0.8 1.56 1.5 3.12 2.22 4.64 c0.1 0.22 0.32 0.86 0.38 0.92 c0.08 0.12 0.22 0.08 0.34 0.08 l2.2 0.02 c0.26 0 0.32 -0.16 0.26 -0.38 c-0.16 -0.6 -1.3 -2.72 -1.56 -3.24 c-0.18 -0.4 -1.38 -2.72 -1.42 -2.9 c-0.04 -0.08 0.26 -0.22 0.3 -0.28 c0.96 -0.86 1.82 -1.74 2 -3.08 c0.2 -1.32 -0.1 -2.76 -0.96 -3.82 c-0.66 -0.78 -1.52 -1.24 -2.54 -1.3 c-0.62 -0.04 -1.22 0.02 -1.84 0 c-0.54 -0.02 -0.92 -0.02 -1.6 -0.02 c-0.32 0 -0.52 0.18 -0.54 0.52 l0 0.24 c-0.04 1.54 0 3.08 0.02 4.6 c0 2.32 -0.04 8.44 -0.04 9.32 c0 0.26 0.04 0.32 0.28 0.32 c0.14 0 0.3 0.02 0.44 0.02 c0.56 0 0.9 -0.02 1.48 -0.02 c0.44 0 0.28 -0.72 0.28 -1.5 z M38.839999999999996 10.7 l0.02 -2.02 c0.02 -0.3 -0.08 -0.9 0.2 -1.12 c0.38 -0.28 1.16 0 1.5 0.24 c1 0.68 0.92 2.36 0.38 3.3 c-0.26 0.44 -0.7 0.7 -1.2 0.84 c-0.3 0.08 -0.86 0.18 -0.88 -0.3 c0 -0.32 -0.02 -0.94 -0.02 -0.94 z M59.46 7.359999999999999 c0.02 -0.66 0 -1.2 0 -1.84 c0 -0.74 -1.34 -0.66 -1.82 -0.64 c-2.14 0.14 -4.18 1.5 -5.16 3.36 c-0.28 0.54 -0.48 1.1 -0.62 1.68 c-0.34 1.36 -0.36 2.8 -0.2 4.18 c0.14 1.3 0.48 2.6 1.28 3.64 c1.38 1.82 3.92 2.46 6.1 2.12 c0.1 -0.02 0.2 -0.04 0.28 -0.1 c0.06 -0.04 0.12 -0.12 0.12 -0.2 l0.06 -1.14 c0.02 -0.36 0 -0.34 0 -0.7 c0 -0.48 -1 -0.12 -1.62 -0.12 c-0.6 0 -1.24 -0.02 -1.78 -0.3 c-0.96 -0.54 -1.5 -1.62 -1.8 -2.64 c-0.34 -1.1 -0.42 -2.28 -0.22 -3.4 c0.24 -1.46 0.94 -3.14 2.48 -3.64 c0.88 -0.3 1.82 -0.2 2.7 -0.1 c0.12 0.02 0.2 -0.06 0.2 -0.16 z M67.5 14.08 c0 0.9 -0.02 2.68 -0.04 2.68 l0 2.72 c0 0.12 -0.02 0.32 0.04 0.44 c0.06 0.14 0.24 0.1 0.36 0.08 c0.58 -0.06 1.16 0.02 1.74 0 c0.64 -0.02 0.44 -1 0.42 -1.4 c-0.08 -0.88 0.02 -7.58 0.02 -9.98 c0 -1.08 -0.04 -3.3 -0.1 -3.4 c-0.1 -0.18 -0.36 -0.22 -0.56 -0.24 c-0.44 -0.08 -0.66 0.04 -1.32 0.04 s-0.7 0.2 -0.7 0.9 l0 0.6 c-0.02 0.48 0.06 3.84 0.06 4.38 c0 0.26 -0.02 0.28 -0.28 0.28 c-0.66 -0.02 -1.58 0.06 -2.26 0 c-0.98 -0.08 -0.76 0 -0.82 -0.9 l0 -0.12 c0 -1.28 0.16 -4.6 0.1 -4.8 c-0.1 -0.3 -0.22 -0.36 -0.48 -0.34 c-0.6 0.04 -1.22 -0.06 -1.82 -0.02 c-0.2 0.02 -0.26 0.08 -0.32 0.28 c-0.02 0.1 -0.04 0.2 -0.04 0.3 c0 0.62 0.04 1.46 0.06 2.08 l-0.06 11.86 c0 0.52 0.46 0.46 1.48 0.46 c0.94 0 1.18 0.22 1.18 -0.9 c0 -0.9 -0.06 -2.04 -0.04 -2.94 c0.02 -0.7 0 -1.38 0 -2.08 c0.02 -0.26 0.08 -0.34 0.32 -0.34 c0.88 -0.02 1.84 0 2.72 0 c0.28 0 0.34 0.04 0.34 0.36 z M82.6 8.68 c0.42 1.24 0.52 2.58 0.52 3.9 c0 1.1 -0.2 2.16 -0.48 3.22 c-0.36 1.26 -0.96 2.4 -2.04 3.14 c-0.8 0.58 -1.64 0.96 -2.62 1.06 c-0.14 0 -0.26 0.02 -0.4 0.02 c-0.12 0 -0.24 -0.02 -0.38 -0.02 c-0.98 -0.1 -1.82 -0.48 -2.64 -1.06 c-1.06 -0.74 -1.68 -1.88 -2.02 -3.14 c-0.3 -1.06 -0.48 -2.12 -0.48 -3.22 c0 -1.32 0.1 -2.66 0.52 -3.9 c0.74 -2.14 2.78 -3.66 5 -3.7 c2.22 0.04 4.26 1.56 5.02 3.7 z M80.66 14.04 c0.2 -1.22 0.12 -2.46 -0.12 -3.68 c-0.24 -1.1 -0.72 -2.18 -1.64 -2.84 c-0.16 -0.12 -0.34 -0.22 -0.52 -0.28 c-0.26 -0.12 -0.54 -0.16 -0.8 -0.16 s-0.52 0.04 -0.78 0.16 c-0.2 0.06 -0.36 0.16 -0.52 0.28 c-0.94 0.66 -1.42 1.74 -1.64 2.84 c-0.24 1.22 -0.32 2.46 -0.12 3.68 c0.2 1.1 0.6 2.58 1.64 3.14 c0.44 0.24 0.92 0.4 1.42 0.42 c0.5 -0.02 1 -0.18 1.44 -0.42 c1.04 -0.56 1.44 -2.04 1.64 -3.14 z M87.88000000000001 14.84 c-0.06 -2.28 -0.04 -4.7 -0.02 -6.96 c0 -0.7 -0.04 -1.46 -0.04 -2.16 c0 -0.76 -0.3 -0.72 -0.7 -0.74 c-0.58 -0.02 -0.84 -0.02 -1.42 -0.02 c-0.38 -0.02 -0.54 0.08 -0.54 0.46 c0 1.96 -0.06 7.5 -0.04 8.3 s0.1 4.44 0.06 5.24 c-0.02 0.28 0 0.56 0.02 0.84 c0.02 0.1 0.08 0.2 0.24 0.2 c0.66 -0.04 1.28 -0.04 1.94 -0.06 c0.24 -0.02 0.44 -0.08 0.54 -0.34 c0.02 -0.14 -0.04 -3.8 -0.04 -4.76 z M97.82000000000001 7.359999999999999 c0.02 -0.66 0 -1.2 0 -1.84 c0 -0.74 -1.34 -0.66 -1.82 -0.64 c-2.14 0.14 -4.18 1.5 -5.16 3.36 c-0.28 0.54 -0.48 1.1 -0.62 1.68 c-0.34 1.36 -0.36 2.8 -0.2 4.18 c0.14 1.3 0.48 2.6 1.28 3.64 c1.38 1.82 3.92 2.46 6.1 2.12 c0.1 -0.02 0.2 -0.04 0.28 -0.1 c0.06 -0.04 0.12 -0.12 0.12 -0.2 l0.06 -1.14 c0.02 -0.36 0 -0.34 0 -0.7 c0 -0.48 -1 -0.12 -1.62 -0.12 c-0.6 0 -1.24 -0.02 -1.78 -0.3 c-0.96 -0.54 -1.5 -1.62 -1.8 -2.64 c-0.34 -1.1 -0.42 -2.28 -0.22 -3.4 c0.24 -1.46 0.94 -3.14 2.48 -3.64 c0.88 -0.3 1.82 -0.2 2.7 -0.1 c0.12 0.02 0.2 -0.06 0.2 -0.16 z M99.88 15.9 l-0.02 0 c0 0.5 -0.02 1.02 0 1.54 c0.02 0.64 0.06 1.28 0.1 1.92 c0 0.22 0.06 0.28 0.26 0.32 c0.42 0.1 0.82 0.12 1.24 0.12 c1.08 -0.04 2.16 0.04 3.24 0 c0.44 -0.02 0.64 0.02 1.08 -0.06 c0.4 -0.08 0.54 -0.3 0.54 -0.9 c-0.04 -0.38 -0.02 -0.54 -0.02 -1 c0 -0.66 -0.46 -0.88 -0.86 -0.86 c-0.28 0.02 -1.62 -0.02 -2.16 -0.02 c-0.9 0.02 -0.76 0.14 -0.76 -0.8 c0 -0.76 0.02 -1.74 0.02 -2.52 c0 -0.42 0.04 -0.56 0.44 -0.56 l2.5 0 c0.4 0.06 0.68 -0.22 0.68 -0.64 s0.04 -0.44 0.04 -0.86 l-0.06 -0.6 c-0.04 -0.34 -0.16 -0.46 -0.5 -0.46 c-0.22 0 -0.44 0.02 -0.66 0.04 c-0.86 0.06 -1.26 -0.06 -2.1 0 c-0.28 0 -0.32 -0.04 -0.34 -0.3 c-0.08 -0.78 0 -1.64 0.08 -2.42 c0.02 -0.32 0.1 -0.38 0.4 -0.4 l2.82 -0.02 c0.38 -0.04 0.5 -0.02 0.48 -0.4 c-0.04 -0.58 0.02 -1.18 -0.04 -1.76 c-0.04 -0.32 -0.14 -0.38 -0.5 -0.38 c-0.6 0.02 -0.74 0.02 -1.34 0.06 c-0.6 0.02 -3 0.02 -3.58 0.02 c-0.84 0 -0.9 -0.06 -0.92 0.96 c-0.04 0.8 -0.02 1.62 -0.02 2.44 c0 1.4 -0.08 6.42 -0.04 7.54 z M116.08 14.84 c-0.06 -2.28 -0.04 -4.7 -0.02 -6.96 c0 -0.7 -0.04 -1.46 -0.04 -2.16 c0 -0.76 -0.3 -0.72 -0.7 -0.74 c-0.58 -0.02 -0.84 -0.02 -1.42 -0.02 c-0.38 -0.02 -0.54 0.08 -0.54 0.46 c0 1.96 -0.06 7.5 -0.04 8.3 s0.1 4.44 0.06 5.24 c-0.02 0.28 0 0.56 0.02 0.84 c0.02 0.1 0.08 0.2 0.24 0.2 c0.66 -0.04 1.28 -0.04 1.94 -0.06 c0.24 -0.02 0.44 -0.08 0.54 -0.34 c0.02 -0.14 -0.04 -3.8 -0.04 -4.76 z M126.63999999999999 5.460000000000001 c0.06 0.28 0.02 13.6 0.02 13.94 c0 0.6 -0.22 0.58 -0.62 0.58 c-0.6 0 -1.44 0.1 -1.62 -0.1 c-0.16 -0.14 -3.12 -7.28 -3.54 -8.18 c-0.04 -0.08 -0.14 -0.28 -0.22 -0.24 c-0.1 0.04 -0.06 0.18 -0.06 0.26 c-0.02 0.7 0.1 6.74 0.1 7.7 c0 0.48 -0.02 0.56 -0.42 0.56 l-1 0 c-0.26 0 -0.58 -0.02 -0.84 0.02 c-0.2 0 -0.3 -0.06 -0.32 -0.26 l0 -1.58 c0.04 -1.68 0 -11.64 0 -12.38 c0 -0.64 0.18 -0.76 0.82 -0.76 c0.44 -0.02 0.88 -0.02 1.32 -0.02 c0.14 0 0.22 0.02 0.3 0.2 c0.54 1.26 2.84 7.04 3.2 7.74 c0.06 0.14 0.28 0.7 0.4 0.76 l0.02 0 c0.08 -0.08 0.06 -0.48 0.06 -0.6 c0 -0.3 -0.16 -7.32 -0.16 -7.46 c0 -0.2 -0.06 -0.38 0.04 -0.52 c0.06 -0.08 0.32 -0.1 0.42 -0.12 c0.56 -0.04 1.22 0.02 1.78 0 c0.28 0 0.26 0.2 0.32 0.46 z M133.70000000000002 15.9 l-0.02 0 c0 0.5 -0.02 1.02 0 1.54 c0.02 0.64 0.06 1.28 0.1 1.92 c0 0.22 0.06 0.28 0.26 0.32 c0.42 0.1 0.82 0.12 1.24 0.12 c1.08 -0.04 2.16 0.04 3.24 0 c0.44 -0.02 0.64 0.02 1.08 -0.06 c0.4 -0.08 0.54 -0.3 0.54 -0.9 c-0.04 -0.38 -0.02 -0.54 -0.02 -1 c0 -0.66 -0.46 -0.88 -0.86 -0.86 c-0.28 0.02 -1.62 -0.02 -2.16 -0.02 c-0.9 0.02 -0.76 0.14 -0.76 -0.8 c0 -0.76 0.02 -1.74 0.02 -2.52 c0 -0.42 0.04 -0.56 0.44 -0.56 l2.5 0 c0.4 0.06 0.68 -0.22 0.68 -0.64 s0.04 -0.44 0.04 -0.86 l-0.06 -0.6 c-0.04 -0.34 -0.16 -0.46 -0.5 -0.46 c-0.22 0 -0.44 0.02 -0.66 0.04 c-0.86 0.06 -1.26 -0.06 -2.1 0 c-0.28 0 -0.32 -0.04 -0.34 -0.3 c-0.08 -0.78 0 -1.64 0.08 -2.42 c0.02 -0.32 0.1 -0.38 0.4 -0.4 l2.82 -0.02 c0.38 -0.04 0.5 -0.02 0.48 -0.4 c-0.04 -0.58 0.02 -1.18 -0.04 -1.76 c-0.04 -0.32 -0.14 -0.38 -0.5 -0.38 c-0.6 0.02 -0.74 0.02 -1.34 0.06 c-0.6 0.02 -3 0.02 -3.58 0.02 c-0.84 0 -0.9 -0.06 -0.92 0.96 c-0.04 0.8 -0.02 1.62 -0.02 2.44 c0 1.4 -0.08 6.42 -0.04 7.54 z M150.66000000000003 5.460000000000001 c0.06 0.28 0.02 13.6 0.02 13.94 c0 0.6 -0.22 0.58 -0.62 0.58 c-0.6 0 -1.44 0.1 -1.62 -0.1 c-0.16 -0.14 -3.12 -7.28 -3.54 -8.18 c-0.04 -0.08 -0.14 -0.28 -0.22 -0.24 c-0.1 0.04 -0.06 0.18 -0.06 0.26 c-0.02 0.7 0.1 6.74 0.1 7.7 c0 0.48 -0.02 0.56 -0.42 0.56 l-1 0 c-0.26 0 -0.58 -0.02 -0.84 0.02 c-0.2 0 -0.3 -0.06 -0.32 -0.26 l0 -1.58 c0.04 -1.68 0 -11.64 0 -12.38 c0 -0.64 0.18 -0.76 0.82 -0.76 c0.44 -0.02 0.88 -0.02 1.32 -0.02 c0.14 0 0.22 0.02 0.3 0.2 c0.54 1.26 2.84 7.04 3.2 7.74 c0.06 0.14 0.28 0.7 0.4 0.76 l0.02 0 c0.08 -0.08 0.06 -0.48 0.06 -0.6 c0 -0.3 -0.16 -7.32 -0.16 -7.46 c0 -0.2 -0.06 -0.38 0.04 -0.52 c0.06 -0.08 0.32 -0.1 0.42 -0.12 c0.56 -0.04 1.22 0.02 1.78 0 c0.28 0 0.26 0.2 0.32 0.46 z M161.64000000000001 16.64 c0.02 0.96 0 1.94 -0.06 2.9 c0 0.08 -0.06 0.16 -0.12 0.2 c-0.08 0.06 -0.18 0.1 -0.28 0.1 c-1.24 0.2 -2.74 0.3 -3.94 -0.1 c-2.7 -0.92 -4.54 -3.94 -4.54 -7.4 c0 -3.74 2.68 -7.38 6.58 -7.52 c0.52 -0.02 2.3 -0.1 2.24 0.78 c-0.04 0.64 0.02 1.16 0 1.82 c0 0.12 -0.08 0.2 -0.2 0.18 c-1.14 -0.14 -2.44 -0.5 -3.54 0.02 c-0.92 0.44 -1.56 1.38 -1.92 2.3 c-0.64 1.52 -0.5 3.28 -0.06 4.84 c0.34 1.24 1.08 2.7 2.56 2.74 c0.08 0.02 0.84 0.06 0.84 -0.02 l-0.06 -2.56 c-0.02 -0.12 -0.02 -0.24 -0.04 -0.36 s-0.1 -0.16 -0.22 -0.18 c-0.32 0 -0.32 -0.02 -0.64 -0.02 c-0.74 0 -0.58 -0.5 -0.6 -0.66 c-0.02 -0.3 0 -0.58 -0.02 -0.88 c-0.02 -0.28 0.06 -0.5 0.34 -0.54 l0.24 0 c1.04 -0.06 2.1 0.02 3.2 0.02 c0.16 0 0.24 0.2 0.24 0.38 c0.02 0.2 0.02 0.34 0.02 0.54 c0.06 0.98 -0.06 1.98 -0.04 2.96 c0.02 0.16 0.02 0.3 0.02 0.46 z M166.44 14.84 c-0.06 -2.28 -0.04 -4.7 -0.02 -6.96 c0 -0.7 -0.04 -1.46 -0.04 -2.16 c0 -0.76 -0.3 -0.72 -0.7 -0.74 c-0.58 -0.02 -0.84 -0.02 -1.42 -0.02 c-0.38 -0.02 -0.54 0.08 -0.54 0.46 c0 1.96 -0.06 7.5 -0.04 8.3 s0.1 4.44 0.06 5.24 c-0.02 0.28 0 0.56 0.02 0.84 c0.02 0.1 0.08 0.2 0.24 0.2 c0.66 -0.04 1.28 -0.04 1.94 -0.06 c0.24 -0.02 0.44 -0.08 0.54 -0.34 c0.02 -0.14 -0.04 -3.8 -0.04 -4.76 z M177.00000000000003 5.460000000000001 c0.06 0.28 0.02 13.6 0.02 13.94 c0 0.6 -0.22 0.58 -0.62 0.58 c-0.6 0 -1.44 0.1 -1.62 -0.1 c-0.16 -0.14 -3.12 -7.28 -3.54 -8.18 c-0.04 -0.08 -0.14 -0.28 -0.22 -0.24 c-0.1 0.04 -0.06 0.18 -0.06 0.26 c-0.02 0.7 0.1 6.74 0.1 7.7 c0 0.48 -0.02 0.56 -0.42 0.56 l-1 0 c-0.26 0 -0.58 -0.02 -0.84 0.02 c-0.2 0 -0.3 -0.06 -0.32 -0.26 l0 -1.58 c0.04 -1.68 0 -11.64 0 -12.38 c0 -0.64 0.18 -0.76 0.82 -0.76 c0.44 -0.02 0.88 -0.02 1.32 -0.02 c0.14 0 0.22 0.02 0.3 0.2 c0.54 1.26 2.84 7.04 3.2 7.74 c0.06 0.14 0.28 0.7 0.4 0.76 l0.02 0 c0.08 -0.08 0.06 -0.48 0.06 -0.6 c0 -0.3 -0.16 -7.32 -0.16 -7.46 c0 -0.2 -0.06 -0.38 0.04 -0.52 c0.06 -0.08 0.32 -0.1 0.42 -0.12 c0.56 -0.04 1.22 0.02 1.78 0 c0.28 0 0.26 0.2 0.32 0.46 z M179.06000000000003 15.9 l-0.02 0 c0 0.5 -0.02 1.02 0 1.54 c0.02 0.64 0.06 1.28 0.1 1.92 c0 0.22 0.06 0.28 0.26 0.32 c0.42 0.1 0.82 0.12 1.24 0.12 c1.08 -0.04 2.16 0.04 3.24 0 c0.44 -0.02 0.64 0.02 1.08 -0.06 c0.4 -0.08 0.54 -0.3 0.54 -0.9 c-0.04 -0.38 -0.02 -0.54 -0.02 -1 c0 -0.66 -0.46 -0.88 -0.86 -0.86 c-0.28 0.02 -1.62 -0.02 -2.16 -0.02 c-0.9 0.02 -0.76 0.14 -0.76 -0.8 c0 -0.76 0.02 -1.74 0.02 -2.52 c0 -0.42 0.04 -0.56 0.44 -0.56 l2.5 0 c0.4 0.06 0.68 -0.22 0.68 -0.64 s0.04 -0.44 0.04 -0.86 l-0.06 -0.6 c-0.04 -0.34 -0.16 -0.46 -0.5 -0.46 c-0.22 0 -0.44 0.02 -0.66 0.04 c-0.86 0.06 -1.26 -0.06 -2.1 0 c-0.28 0 -0.32 -0.04 -0.34 -0.3 c-0.08 -0.78 0 -1.64 0.08 -2.42 c0.02 -0.32 0.1 -0.38 0.4 -0.4 l2.82 -0.02 c0.38 -0.04 0.5 -0.02 0.48 -0.4 c-0.04 -0.58 0.02 -1.18 -0.04 -1.76 c-0.04 -0.32 -0.14 -0.38 -0.5 -0.38 c-0.6 0.02 -0.74 0.02 -1.34 0.06 c-0.6 0.02 -3 0.02 -3.58 0.02 c-0.84 0 -0.9 -0.06 -0.92 0.96 c-0.04 0.8 -0.02 1.62 -0.02 2.44 c0 1.4 -0.08 6.42 -0.04 7.54 z M187.52000000000004 15.9 l-0.02 0 c0 0.5 -0.02 1.02 0 1.54 c0.02 0.64 0.06 1.28 0.1 1.92 c0 0.22 0.06 0.28 0.26 0.32 c0.42 0.1 0.82 0.12 1.24 0.12 c1.08 -0.04 2.16 0.04 3.24 0 c0.44 -0.02 0.64 0.02 1.08 -0.06 c0.4 -0.08 0.54 -0.3 0.54 -0.9 c-0.04 -0.38 -0.02 -0.54 -0.02 -1 c0 -0.66 -0.46 -0.88 -0.86 -0.86 c-0.28 0.02 -1.62 -0.02 -2.16 -0.02 c-0.9 0.02 -0.76 0.14 -0.76 -0.8 c0 -0.76 0.02 -1.74 0.02 -2.52 c0 -0.42 0.04 -0.56 0.44 -0.56 l2.5 0 c0.4 0.06 0.68 -0.22 0.68 -0.64 s0.04 -0.44 0.04 -0.86 l-0.06 -0.6 c-0.04 -0.34 -0.16 -0.46 -0.5 -0.46 c-0.22 0 -0.44 0.02 -0.66 0.04 c-0.86 0.06 -1.26 -0.06 -2.1 0 c-0.28 0 -0.32 -0.04 -0.34 -0.3 c-0.08 -0.78 0 -1.64 0.08 -2.42 c0.02 -0.32 0.1 -0.38 0.4 -0.4 l2.82 -0.02 c0.38 -0.04 0.5 -0.02 0.48 -0.4 c-0.04 -0.58 0.02 -1.18 -0.04 -1.76 c-0.04 -0.32 -0.14 -0.38 -0.5 -0.38 c-0.6 0.02 -0.74 0.02 -1.34 0.06 c-0.6 0.02 -3 0.02 -3.58 0.02 c-0.84 0 -0.9 -0.06 -0.92 0.96 c-0.04 0.8 -0.02 1.62 -0.02 2.44 c0 1.4 -0.08 6.42 -0.04 7.54 z M198.44000000000003 18.5 c0 -0.52 0 -3.8 0.02 -4.06 c0.02 -0.06 0.06 -0.18 0.14 -0.18 s0.12 0.04 0.14 0.1 c0.8 1.56 1.5 3.12 2.22 4.64 c0.1 0.22 0.32 0.86 0.38 0.92 c0.08 0.12 0.22 0.08 0.34 0.08 l2.2 0.02 c0.26 0 0.32 -0.16 0.26 -0.38 c-0.16 -0.6 -1.3 -2.72 -1.56 -3.24 c-0.18 -0.4 -1.38 -2.72 -1.42 -2.9 c-0.04 -0.08 0.26 -0.22 0.3 -0.28 c0.96 -0.86 1.82 -1.74 2 -3.08 c0.2 -1.32 -0.1 -2.76 -0.96 -3.82 c-0.66 -0.78 -1.52 -1.24 -2.54 -1.3 c-0.62 -0.04 -1.22 0.02 -1.84 0 c-0.54 -0.02 -0.92 -0.02 -1.6 -0.02 c-0.32 0 -0.52 0.18 -0.54 0.52 l0 0.24 c-0.04 1.54 0 3.08 0.02 4.6 c0 2.32 -0.04 8.44 -0.04 9.32 c0 0.26 0.04 0.32 0.28 0.32 c0.14 0 0.3 0.02 0.44 0.02 c0.56 0 0.9 -0.02 1.48 -0.02 c0.44 0 0.28 -0.72 0.28 -1.5 z M198.44000000000003 10.7 l0.02 -2.02 c0.02 -0.3 -0.08 -0.9 0.2 -1.12 c0.38 -0.28 1.16 0 1.5 0.24 c1 0.68 0.92 2.36 0.38 3.3 c-0.26 0.44 -0.7 0.7 -1.2 0.84 c-0.3 0.08 -0.86 0.18 -0.88 -0.3 c0 -0.32 -0.02 -0.94 -0.02 -0.94 z M208.92000000000002 14.84 c-0.06 -2.28 -0.04 -4.7 -0.02 -6.96 c0 -0.7 -0.04 -1.46 -0.04 -2.16 c0 -0.76 -0.3 -0.72 -0.7 -0.74 c-0.58 -0.02 -0.84 -0.02 -1.42 -0.02 c-0.38 -0.02 -0.54 0.08 -0.54 0.46 c0 1.96 -0.06 7.5 -0.04 8.3 s0.1 4.44 0.06 5.24 c-0.02 0.28 0 0.56 0.02 0.84 c0.02 0.1 0.08 0.2 0.24 0.2 c0.66 -0.04 1.28 -0.04 1.94 -0.06 c0.24 -0.02 0.44 -0.08 0.54 -0.34 c0.02 -0.14 -0.04 -3.8 -0.04 -4.76 z M219.48000000000005 5.460000000000001 c0.06 0.28 0.02 13.6 0.02 13.94 c0 0.6 -0.22 0.58 -0.62 0.58 c-0.6 0 -1.44 0.1 -1.62 -0.1 c-0.16 -0.14 -3.12 -7.28 -3.54 -8.18 c-0.04 -0.08 -0.14 -0.28 -0.22 -0.24 c-0.1 0.04 -0.06 0.18 -0.06 0.26 c-0.02 0.7 0.1 6.74 0.1 7.7 c0 0.48 -0.02 0.56 -0.42 0.56 l-1 0 c-0.26 0 -0.58 -0.02 -0.84 0.02 c-0.2 0 -0.3 -0.06 -0.32 -0.26 l0 -1.58 c0.04 -1.68 0 -11.64 0 -12.38 c0 -0.64 0.18 -0.76 0.82 -0.76 c0.44 -0.02 0.88 -0.02 1.32 -0.02 c0.14 0 0.22 0.02 0.3 0.2 c0.54 1.26 2.84 7.04 3.2 7.74 c0.06 0.14 0.28 0.7 0.4 0.76 l0.02 0 c0.08 -0.08 0.06 -0.48 0.06 -0.6 c0 -0.3 -0.16 -7.32 -0.16 -7.46 c0 -0.2 -0.06 -0.38 0.04 -0.52 c0.06 -0.08 0.32 -0.1 0.42 -0.12 c0.56 -0.04 1.22 0.02 1.78 0 c0.28 0 0.26 0.2 0.32 0.46 z M230.46000000000004 16.64 c0.02 0.96 0 1.94 -0.06 2.9 c0 0.08 -0.06 0.16 -0.12 0.2 c-0.08 0.06 -0.18 0.1 -0.28 0.1 c-1.24 0.2 -2.74 0.3 -3.94 -0.1 c-2.7 -0.92 -4.54 -3.94 -4.54 -7.4 c0 -3.74 2.68 -7.38 6.58 -7.52 c0.52 -0.02 2.3 -0.1 2.24 0.78 c-0.04 0.64 0.02 1.16 0 1.82 c0 0.12 -0.08 0.2 -0.2 0.18 c-1.14 -0.14 -2.44 -0.5 -3.54 0.02 c-0.92 0.44 -1.56 1.38 -1.92 2.3 c-0.64 1.52 -0.5 3.28 -0.06 4.84 c0.34 1.24 1.08 2.7 2.56 2.74 c0.08 0.02 0.84 0.06 0.84 -0.02 l-0.06 -2.56 c-0.02 -0.12 -0.02 -0.24 -0.04 -0.36 s-0.1 -0.16 -0.22 -0.18 c-0.32 0 -0.32 -0.02 -0.64 -0.02 c-0.74 0 -0.58 -0.5 -0.6 -0.66 c-0.02 -0.3 0 -0.58 -0.02 -0.88 c-0.02 -0.28 0.06 -0.5 0.34 -0.54 l0.24 0 c1.04 -0.06 2.1 0.02 3.2 0.02 c0.16 0 0.24 0.2 0.24 0.38 c0.02 0.2 0.02 0.34 0.02 0.54 c0.06 0.98 -0.06 1.98 -0.04 2.96 c0.02 0.16 0.02 0.3 0.02 0.46 z M240.40000000000003 5.02 c-0.2 0 -0.4 0.02 -0.6 0.02 c-0.3 0 -0.66 -0.06 -0.72 0.34 c-0.2 1.7 -0.38 3.58 -0.58 5.28 c-0.34 2.8 -0.66 5.68 -0.98 8.48 c-0.04 0.38 -0.08 0.74 0.34 0.82 c0.64 0.04 1.12 0.04 1.66 0.02 c0.2 0.02 0.42 0.04 0.48 -0.2 c0.04 -0.1 0.04 -0.2 0.04 -0.3 c0.04 -0.46 0.64 -6.22 0.88 -6.22 c0.38 0 1.38 4.68 1.86 6.4 c0.06 0.24 0.18 0.34 0.42 0.32 c0.5 -0.04 0.98 0 1.48 0 s0.4 -0.32 0.5 -0.74 c0.12 -0.46 1.28 -6 1.56 -6 c0.32 0 0.98 6.42 1.04 6.56 c0.12 0.28 0.46 0.16 0.7 0.16 c0.36 0 0.7 0.04 1.16 0 c0.34 -0.04 0.68 0.08 0.7 -0.36 c0 -0.1 -0.04 -0.2 -0.06 -0.3 c-0.08 -0.5 -0.18 -1.1 -0.28 -1.6 c-0.14 -1.04 -0.34 -2.06 -0.48 -3.1 c-0.2 -1.64 -0.4 -3.28 -0.58 -4.92 c-0.14 -1.4 -0.34 -2.98 -0.46 -4.38 c-0.04 -0.46 -0.56 -0.3 -0.88 -0.3 l-1.38 0 c-0.22 0 -0.32 0.42 -0.36 0.64 c-0.12 0.56 -1.5 7.78 -1.96 7.78 s-1.94 -6.6 -2.2 -8.04 c-0.06 -0.32 -0.28 -0.42 -0.58 -0.42 z M254.18000000000004 19.84 c0.06 0.02 0.24 0.02 0.42 0.02 c0.4 0 0.52 -1.44 0.56 -1.74 c0.02 -0.24 0.08 -0.26 0.28 -0.3 c1 -0.12 1.5 -0.04 2.5 -0.02 c0.22 0 0.34 0.1 0.4 0.28 l0.14 0.46 c0.12 0.34 0.22 0.76 0.34 1.1 c0.08 0.24 0.1 0.22 0.34 0.22 c0.32 0 1.48 0 1.82 -0.02 c0.46 0 0.14 -0.94 0.08 -1.1 c-0.18 -0.56 -0.22 -1.14 -0.4 -1.7 c-0.08 -0.24 -2.36 -11.06 -2.46 -11.66 c-0.14 -0.36 -0.02 -0.38 -0.34 -0.38 c-0.68 0 -1.4 0.04 -2.1 0 c-0.28 0 -0.26 0.08 -0.3 0.38 c-0.04 0.28 -0.76 3.46 -1.04 4.78 c-0.36 1.66 -0.68 3.26 -1.08 4.9 c-0.14 0.58 -1.1 4.76 -0.98 4.78 c0.06 0.04 0.16 0.02 0.24 0.02 c0.5 0 0.96 0 1.58 -0.02 z M256.8 15.3 l-0.42 0 c-0.56 0 -0.58 0 -0.44 -0.58 c0.1 -0.44 0.64 -2.82 0.76 -3.4 c0.02 -0.04 0.06 -0.08 0.08 -0.08 c0.04 0 0.08 0.04 0.1 0.06 c0.08 0.24 0.16 0.84 0.24 1.08 c0.18 0.76 0.3 1.4 0.48 2.22 c0.18 0.72 0.1 0.72 -0.26 0.72 c-0.18 0 -0.36 -0.02 -0.54 -0.02 z M265.76000000000005 17.82 c0.02 0.62 0.02 1.24 0.04 1.86 c0 0.28 0.02 0.32 0.3 0.32 l1.8 0 c0.38 0 0.3 -0.64 0.28 -0.98 l0.06 -11.2 c0 -0.3 0.1 -0.4 0.5 -0.4 l1.76 0 c0.42 0 0.32 -0.72 0.32 -1.22 c0 -0.44 0.16 -1.2 -0.32 -1.2 c-0.34 0 -3.6 0 -4.94 0.02 c-0.66 0 -1.2 -0.02 -1.86 -0.02 c-0.5 0 -0.48 0.4 -0.48 1.28 c0 0.56 -0.02 1.12 0.46 1.12 c0.28 0 1.42 0 1.74 0.02 c0.2 0 0.34 0.06 0.38 0.28 c0 0.06 0.02 0.12 0.02 0.18 c0 1.44 -0.1 8.14 -0.06 9.94 z M275.38000000000005 17.82 c0.02 0.62 0.02 1.24 0.04 1.86 c0 0.28 0.02 0.32 0.3 0.32 l1.8 0 c0.38 0 0.3 -0.64 0.28 -0.98 l0.06 -11.2 c0 -0.3 0.1 -0.4 0.5 -0.4 l1.76 0 c0.42 0 0.32 -0.72 0.32 -1.22 c0 -0.44 0.16 -1.2 -0.32 -1.2 c-0.34 0 -3.6 0 -4.94 0.02 c-0.66 0 -1.2 -0.02 -1.86 -0.02 c-0.5 0 -0.48 0.4 -0.48 1.28 c0 0.56 -0.02 1.12 0.46 1.12 c0.28 0 1.42 0 1.74 0.02 c0.2 0 0.34 0.06 0.38 0.28 c0 0.06 0.02 0.12 0.02 0.18 c0 1.44 -0.1 8.14 -0.06 9.94 z M282.48 15.9 l-0.02 0 c0 0.5 -0.02 1.02 0 1.54 c0.02 0.64 0.06 1.28 0.1 1.92 c0 0.22 0.06 0.28 0.26 0.32 c0.42 0.1 0.82 0.12 1.24 0.12 c1.08 -0.04 2.16 0.04 3.24 0 c0.44 -0.02 0.64 0.02 1.08 -0.06 c0.4 -0.08 0.54 -0.3 0.54 -0.9 c-0.04 -0.38 -0.02 -0.54 -0.02 -1 c0 -0.66 -0.46 -0.88 -0.86 -0.86 c-0.28 0.02 -1.62 -0.02 -2.16 -0.02 c-0.9 0.02 -0.76 0.14 -0.76 -0.8 c0 -0.76 0.02 -1.74 0.02 -2.52 c0 -0.42 0.04 -0.56 0.44 -0.56 l2.5 0 c0.4 0.06 0.68 -0.22 0.68 -0.64 s0.04 -0.44 0.04 -0.86 l-0.06 -0.6 c-0.04 -0.34 -0.16 -0.46 -0.5 -0.46 c-0.22 0 -0.44 0.02 -0.66 0.04 c-0.86 0.06 -1.26 -0.06 -2.1 0 c-0.28 0 -0.32 -0.04 -0.34 -0.3 c-0.08 -0.78 0 -1.64 0.08 -2.42 c0.02 -0.32 0.1 -0.38 0.4 -0.4 l2.82 -0.02 c0.38 -0.04 0.5 -0.02 0.48 -0.4 c-0.04 -0.58 0.02 -1.18 -0.04 -1.76 c-0.04 -0.32 -0.14 -0.38 -0.5 -0.38 c-0.6 0.02 -0.74 0.02 -1.34 0.06 c-0.6 0.02 -3 0.02 -3.58 0.02 c-0.84 0 -0.9 -0.06 -0.92 0.96 c-0.04 0.8 -0.02 1.62 -0.02 2.44 c0 1.4 -0.08 6.42 -0.04 7.54 z M293.40000000000003 18.5 c0 -0.52 0 -3.8 0.02 -4.06 c0.02 -0.06 0.06 -0.18 0.14 -0.18 s0.12 0.04 0.14 0.1 c0.8 1.56 1.5 3.12 2.22 4.64 c0.1 0.22 0.32 0.86 0.38 0.92 c0.08 0.12 0.22 0.08 0.34 0.08 l2.2 0.02 c0.26 0 0.32 -0.16 0.26 -0.38 c-0.16 -0.6 -1.3 -2.72 -1.56 -3.24 c-0.18 -0.4 -1.38 -2.72 -1.42 -2.9 c-0.04 -0.08 0.26 -0.22 0.3 -0.28 c0.96 -0.86 1.82 -1.74 2 -3.08 c0.2 -1.32 -0.1 -2.76 -0.96 -3.82 c-0.66 -0.78 -1.52 -1.24 -2.54 -1.3 c-0.62 -0.04 -1.22 0.02 -1.84 0 c-0.54 -0.02 -0.92 -0.02 -1.6 -0.02 c-0.32 0 -0.52 0.18 -0.54 0.52 l0 0.24 c-0.04 1.54 0 3.08 0.02 4.6 c0 2.32 -0.04 8.44 -0.04 9.32 c0 0.26 0.04 0.32 0.28 0.32 c0.14 0 0.3 0.02 0.44 0.02 c0.56 0 0.9 -0.02 1.48 -0.02 c0.44 0 0.28 -0.72 0.28 -1.5 z M293.40000000000003 10.7 l0.02 -2.02 c0.02 -0.3 -0.08 -0.9 0.2 -1.12 c0.38 -0.28 1.16 0 1.5 0.24 c1 0.68 0.92 2.36 0.38 3.3 c-0.26 0.44 -0.7 0.7 -1.2 0.84 c-0.3 0.08 -0.86 0.18 -0.88 -0.3 c0 -0.32 -0.02 -0.94 -0.02 -0.94 z M305.2 4.9 c-0.38 0.02 -0.76 0.08 -1.14 0.2 c-0.82 0.28 -1.56 0.84 -2.06 1.56 c-0.44 0.66 -0.62 1.44 -0.68 2.22 c-0.04 0.6 0.02 1.22 0.3 1.76 c0.3 0.58 0.82 1.08 1.26 1.56 c0.4 0.42 0.8 0.84 1.24 1.22 c0.4 0.38 0.86 0.68 1.26 1.08 c0.58 0.58 0.8 1.9 0.38 2.62 c-0.5 0.8 -1.68 0.92 -2.46 0.66 c-0.4 -0.14 -0.76 -0.44 -1.1 -0.68 c-0.2 -0.14 -0.44 -0.2 -0.58 0.04 c-0.08 0.12 -0.12 0.26 -0.16 0.38 c-0.14 0.5 -0.32 0.96 -0.34 1.5 c-0.02 0.62 1.16 0.8 1.6 0.9 c1.96 0.46 4.32 0.1 5.34 -1.84 c0.2 -0.4 0.34 -0.82 0.42 -1.26 c0.02 -0.16 0.04 -0.3 0.04 -0.46 c0.08 -1.28 -0.44 -2.36 -1.22 -3.32 c-0.84 -1.04 -1.9 -1.76 -2.88 -2.66 c-0.6 -0.56 -0.82 -1.44 -0.64 -2.24 c0.18 -0.86 1.16 -1.08 1.9 -0.86 c0.22 0.06 0.4 0.16 0.6 0.28 c0.12 0.06 0.24 0.14 0.4 0.14 c0.28 0.02 0.32 -0.2 0.38 -0.42 c0.14 -0.5 0.38 -0.9 0.48 -1.38 c0.1 -0.54 -0.34 -0.64 -0.78 -0.78 c-0.52 -0.14 -1.02 -0.24 -1.56 -0.22 z"></path></g>
			</g>
		</svg>
	